<?xml version="1.0" encoding="UTF-8"?>
<svg id="Layer_6" data-name="Layer 6" xmlns="http://www.w3.org/2000/svg" width="433.71" height="168.94" xmlns:xlink="http://www.w3.org/1999/xlink" viewBox="0 0 433.71 168.94">
  <defs>
    <style>
      .cls-1 {
        clip-path: url(#clippath-2);
      }

      .cls-2 {
        opacity: .35;
      }

      .cls-3 {
        clip-path: url(#clippath-1);
      }

      .cls-4 {
        clip-path: url(#clippath);
      }

      .cls-5 {
        fill: none;
      }

      .cls-6 {
        fill: url(#linear-gradient);
      }
    </style>
    <clipPath id="clippath">
      <rect class="cls-5" width="433.71" height="168.94"/>
    </clipPath>
    <clipPath id="clippath-1">
      <rect class="cls-5" x="-122.19" y="-38.16" width="555.89" height="295.27" transform="translate(311.52 218.96) rotate(-180)"/>
    </clipPath>
    <clipPath id="clippath-2">
      <polygon class="cls-5" points="657.49 -239.09 -511.3 222.46 -447.23 686.15 806.03 96.54 657.49 -239.09"/>
    </clipPath>
    <linearGradient id="linear-gradient" x1="-1960.47" y1="-5604.82" x2="-1363.35" y2="-5604.82" gradientTransform="translate(-643.45 -5524.78) rotate(-23.87) scale(1 -1)" gradientUnits="userSpaceOnUse">
      <stop offset="0" stop-color="#90faff"/>
      <stop offset=".18" stop-color="#67c9e5"/>
      <stop offset=".49" stop-color="#1f71b7"/>
      <stop offset="1" stop-color="#90faff"/>
    </linearGradient>
  </defs>
  <g class="cls-2">
    <g class="cls-4">
      <g class="cls-3">
        <g class="cls-1">
          <path class="cls-6" d="m438.19,4.76c-1.17-.06-2.17.83-2.23,2-.02.31.04.6.14.87l-62.47,33.56c-.36-.45-.91-.75-1.53-.79-1.17-.06-2.17.83-2.23,2-.06,1.17.83,2.17,2,2.23.09,0,.18,0,.26,0l6.31,24.14c-.76.29-1.32,1-1.37,1.87-.02.26.02.51.1.75l-52.69,26.51c-.36-.53-.95-.89-1.64-.93-1.17-.06-2.17.83-2.23,2-.06,1.17.83,2.17,2,2.23.24.01.47-.02.69-.08l10.78,25.07c-.59.35-1,.97-1.03,1.71v-.27s-69.34,1.29-69.34,1.29c-.15-.97-.96-1.75-1.98-1.8-.51-.03-.99.13-1.38.41l-20.13-20.89c.27-.33.44-.75.46-1.21.06-1.17-.83-2.17-2-2.23s-2.17.83-2.23,2c-.02.43.08.83.28,1.18l-34.75,26.68c-.36-.36-.84-.59-1.39-.62-1.17-.06-2.17.83-2.23,2-.02.46.1.89.33,1.25l-20.61,17.18c-.35-.32-.81-.53-1.32-.56-.98-.05-1.84.57-2.13,1.47l-46.22-8.51-3.61,19.18s0,0,0,0c-.64-.04-1.22.22-1.63.64l-27.34-19.81c.16-.28.26-.59.27-.93.06-1.17-.83-2.17-2-2.23-1.15-.06-2.13.81-2.23,1.95l-33.28,4.9-6,.88c-.29-.75-1-1.31-1.86-1.36-1.17-.06-2.17.83-2.23,2-.01.23.01.44.07.65l-33.25,13.54c-.26-.45-.67-.8-1.18-.97-.66-.26-1.43-.2-2.04.26-.94.7-1.13,2.02-.43,2.95.03.04.06.07.09.1l-21.95,19.52c-.73-.75-1.91-.87-2.78-.22-.2.15-.36.33-.49.52l-24.49-13.62c.26-.66.19-1.43-.27-2.04-.7-.94-2.02-1.13-2.95-.43-.71.53-.99,1.42-.78,2.23l-45.26,18.42c-.04-.07-.09-.15-.14-.22-.7-.93-2.02-1.13-2.95-.43-.94.69-1.13,2.02-.43,2.95.1.13.2.24.32.34l-14.88,22.72c-.69-.33-1.53-.28-2.18.2-.93.7-1.13,2.02-.43,2.95.29.39.69.65,1.13.77l-4.21,29.53c-.45,0-.9.13-1.29.41-.42.31-.69.75-.8,1.23l-70.16-6.54c-.02-.41-.15-.83-.41-1.18-.7-.94-2.02-1.13-2.95-.43-.93.7-1.13,2.02-.43,2.95.19.25.42.45.67.59l-31.17,79.23c-.73-.73-1.9-.84-2.75-.2-.93.7-1.13,2.02-.43,2.95.05.06.1.12.15.18l-19.93,24.17c-.72-.45-1.66-.44-2.38.09-.35.26-.6.61-.73.99l-38.63-8.19.46-.58-.98.47-.33-.07.05.2-60.46,29.07s-.05-.07-.07-.11c-.69-.93-2.02-1.13-2.95-.43-.94.69-1.13,2.02-.43,2.95.2.28.47.49.75.63l-10.78,31.26c-.57-.12-1.18,0-1.69.37-.94.7-1.13,2.02-.43,2.95.7.94,2.02,1.13,2.95.43,0,0,0,0,.01-.01l18.65,18.98c-.57.73-.62,1.78-.03,2.56.7.93,2.02,1.13,2.95.43.35-.26.59-.6.73-.98l34.72,7.51c-.04.5.09,1.01.41,1.44.43.58,1.12.88,1.79.85l4.44,24.91c-.22.07-.43.17-.63.32-.94.7-1.13,2.02-.43,2.95.39.53.98.82,1.58.85l2.85,36.77c-.29.06-.57.18-.83.37-.94.7-1.13,2.02-.43,2.95.7.93,2.02,1.13,2.95.43.16-.12.29-.25.4-.4l44.69,26.28c-.28.67-.22,1.46.25,2.09.7.93,2.02,1.13,2.95.43.05-.03.09-.07.13-.11l36.32,31.78c-.48.72-.49,1.7.06,2.43.7.94,2.02,1.13,2.95.43.94-.7,1.13-2.02.43-2.95-.18-.25-.41-.44-.66-.58l26.45-65.48c.57.11,1.18,0,1.68-.37.93-.7,1.13-2.02.43-2.95-.7-.93-2.02-1.13-2.95-.43-.07.05-.14.11-.2.17l-20.21-14.47c.4-.7.37-1.61-.14-2.3-.16-.21-.35-.38-.55-.51l23.45-53.86c.61.18,1.3.08,1.85-.33.93-.7,1.13-2.02.43-2.95-.7-.94-2.02-1.13-2.95-.43-.19.14-.35.31-.48.5l-24.22-12.32c.23-.64.14-1.38-.29-1.97l.18.2,52.26-45.15c.73.66,1.85.73,2.67.12.41-.31.68-.73.79-1.19l28.71,3.17c0,.42.14.85.42,1.22.7.94,2.02,1.13,2.95.43.93-.7,1.13-2.02.43-2.95-.25-.34-.59-.58-.97-.72l9.61-42.56c.5.05,1.02-.08,1.46-.41.94-.7,1.13-2.02.43-2.95-.27-.37-.64-.62-1.05-.75l4.83-26.28c.47.02.96-.11,1.37-.42.79-.58,1.05-1.61.7-2.48l40.81-22.93-9.45-16.98s0,0,0,0c.51-.38.8-.94.84-1.52l33.54-2.25c.06.31.18.62.38.89.7.94,2.02,1.13,2.95.43.92-.69,1.12-1.98.46-2.91L-.93,224.71l4.03-4.5c.7.39,1.6.37,2.29-.15.93-.7,1.13-2.02.43-2.95-.13-.18-.29-.33-.47-.46l16.82-31.54c.59.22,1.27.17,1.84-.17l17.21-.57c.08,1.05.92,1.9,2,1.96.25.01.49-.02.72-.09l10.16,26.24c-.63.34-1.06.98-1.11,1.74-.06,1.17.83,2.17,2,2.23.89.05,1.68-.46,2.03-1.22l46.77,14.85c-.02.08-.03.17-.03.26-.06,1.17.83,2.17,2,2.23,1.17.06,2.17-.83,2.23-2,0-.16,0-.31-.03-.47l26.08-7.97c.32.7,1,1.2,1.81,1.24,1.17.06,2.17-.83,2.23-2,.03-.49-.12-.95-.38-1.32l22.22-20.09c.34.29.78.48,1.26.51.53.03,1.02-.14,1.4-.44l49.95,50.11c-.26.33-.42.74-.44,1.18-.06,1.17.83,2.17,2,2.23,1.17.06,2.17-.83,2.23-2,.02-.31-.04-.61-.14-.89l74.95-41.13c.09,1.03.93,1.87,2,1.92,1.17.06,2.17-.83,2.23-2,0-.08,0-.16,0-.24l30.91-5.86c.26.81,1,1.41,1.9,1.46.44.02.85-.09,1.2-.3l24.55,31.14-.73.15,1.06.27.21.26.09-.19,65.34,16.4s0,.09-.01.13c-.06,1.17.83,2.17,2,2.23,1.17.06,2.17-.83,2.23-2,.02-.34-.05-.67-.18-.97l28.4-17.21c.36.46.91.76,1.54.8,1.17.06,2.17-.83,2.23-2,.06-1.17-.83-2.17-2-2.23,0,0,0,0-.02,0l-2.2-26.63c.91-.2,1.62-.98,1.67-1.96.06-1.17-.83-2.17-2-2.23-.43-.02-.85.09-1.19.29l-21.97-28.1c.35-.36.58-.83.61-1.37.04-.73-.3-1.4-.84-1.81l12.57-22.08c.21.09.44.14.69.16,1.17.06,2.17-.83,2.23-2,.04-.66-.23-1.26-.68-1.67l21.42-30.22c.26.14.56.23.88.24,1.17.06,2.17-.83,2.23-2,.06-1.17-.83-2.17-2-2.23-.2-.01-.38,0-.57.05l-17.62-48.99c.65-.33,1.11-.99,1.15-1.77.06-1.17-.83-2.17-2-2.23-.06,0-.12,0-.18,0l-7.62-47.85c.83-.25,1.46-1,1.52-1.92.06-1.17-.83-2.17-2-2.23Zm-9.52,78.87l16.68-22.9c.27.15.58.24.9.26.2.01.39,0,.57-.05l17.62,48.99c-.2.1-.38.24-.54.4l-35.22-26.7Zm-2.91,89.35l-.86,1.83-16.67-17.2,16.83,12.54c-.15.27-.25.58-.27.92-.04.79.35,1.5.98,1.9Zm-10.99-43.22l6.05,21.15-13.2,3.64c-.2-.48-.58-.88-1.06-1.1l7.49-23.73c.11.03.23.04.35.05.12,0,.24,0,.36-.01Zm-1.88-3.46l5.42-22.71-3.8,21.95c-.65,0-1.23.29-1.62.76Zm.65,3.23l-5.83,18.47,4.75-19.87c.14.61.54,1.12,1.08,1.4Zm7.43,21.9l5.09,17.82c-.26.11-.49.27-.68.47l-17.86-13.31c.15-.27.25-.58.27-.92,0-.14,0-.28-.02-.41l13.2-3.64Zm3.68,23.91l-22.95,48.81c-.05-.02-.1-.03-.16-.04l-.12-.16,4.37-66.46c.42-.03.81-.18,1.13-.42l17.71,18.27Zm-23.77,48.71c-.29.02-.56.11-.81.23l-20.31-29.89,24.96-37.13c.17.08.35.14.54.18l-4.38,66.61Zm-26.1-76.29l28.8,7.35s-.01.09-.02.14c-.01.22.01.44.06.64l-37.58,15.02c-.18-.33-.45-.6-.78-.79l9.51-22.36Zm-.32-.64l-15.02-3.84s.01-.09.02-.14c.02-.35-.05-.69-.19-.99l22.51-14.04c.16.19.35.36.56.49l-7.88,18.52Zm-44.38,54.43l23.09-19.89,17.56,21.97c-.28.29-.48.66-.56,1.08l-39.74-2.15c-.03-.37-.15-.71-.34-1.01Zm23.5-20.25l9.11-7.85c.36.36.84.6,1.39.62.12,0,.23,0,.34-.01l7.06,29.05c-.12.05-.23.1-.34.17l-17.57-21.98Zm11.39-7.37c.06-.02.12-.05.18-.08l13.96,20.55-5.91,8.8c-.25-.12-.53-.2-.83-.22-.12,0-.23,0-.34.01l-7.05-29.06Zm.63-.39c.41-.36.68-.88.71-1.47.01-.22-.01-.44-.06-.64l37.58-15.02c.12.21.27.4.45.56l-24.84,36.95-13.84-20.37Zm34.03,51.06s-.08.08-.12.12l-18.3-13.41-7.1-5.2c.15-.27.24-.58.26-.91.04-.67-.25-1.29-.72-1.7l5.79-8.62,20.19,29.72Zm-.43.56s-.04.06-.05.1l-33.53-10.81,4.55-8.96c.18.93.97,1.65,1.96,1.71.64.03,1.23-.22,1.65-.65l25.41,18.61Zm-34.1-10.88l-34.7-11.19,39.3,2.13-4.61,9.06Zm-36.4-13.65l2.44-45.06c.34-.02.66-.13.94-.3l20.75,25.96-23.11,19.91c-.28-.25-.63-.43-1.03-.5Zm3.8-45.7c.06-.07.12-.14.18-.21l29.55,16.46c-.08.21-.14.43-.15.67-.02.43.08.83.28,1.17l-9.12,7.86-20.74-25.95Zm.44-.69c.08-.21.13-.43.15-.66.01-.23-.01-.44-.06-.65l14.48-5.86,15.31,23.3c-.09.08-.17.16-.25.26l-29.62-16.37Zm3.7-24.7c.05-.05.11-.11.16-.17l18.67,12.67c-.14.27-.24.57-.25.89,0,.14,0,.28.02.42l-7.52,3.05-11.07-16.85Zm20.58,15.62c.08,0,.16,0,.24,0l6.22,24.75c-.14.04-.28.09-.41.15l-15.25-23.2,7.37-2.98c.31.72,1,1.24,1.83,1.28Zm.77-.1c.6-.19,1.08-.64,1.31-1.23l14.94,3.81-9.48,22.29c-.14-.04-.3-.07-.46-.08-.03,0-.06,0-.08,0l-6.23-24.8Zm.21-3.94l6.78-22.43,16.4,7.48c-.05.16-.08.33-.09.51-.02.36.05.69.19,1l-22.51,14.04c-.21-.25-.47-.45-.77-.59Zm24.63-12.29c.15.04.3.07.46.08.43.02.84-.09,1.19-.29l19.69,25.29c-.2.2-.36.44-.46.7l-28.71-7.33,7.84-18.44Zm2.08-.55c.35-.36.58-.84.61-1.37.03-.47-.11-.91-.35-1.28l33.47-28.9c.2.16.43.29.68.38l-13.42,56.18s-.07,0-.11-.01c-.43-.02-.84.09-1.19.29l-19.69-25.28Zm-.32-3.25l19.48-39.15,13.99,8.37c-.1.23-.16.48-.18.74-.03.5.12.96.39,1.34l-33.45,28.89c-.07-.07-.15-.13-.23-.18Zm59.88-65.2c.11.23.26.43.45.61l-16.67,22.89-15.13-11.47c.16-.28.26-.6.28-.94,0-.18,0-.36-.04-.53l31.12-10.56Zm-31.29,10.04c-.33-.67-.99-1.14-1.79-1.18-1.11-.06-2.07.75-2.21,1.84l-26.89-.09,60.63-10.65-29.74,10.09Zm14.74,13.89l-6.9,9.48c-.27-.15-.58-.24-.9-.26-.18,0-.35,0-.52.04l-7.36-20.34c.2-.1.38-.24.54-.39l15.14,11.47Zm-8.84,9.43c-.29.14-.54.34-.74.59l-14.03-8.39,6.26-12.58c.18.06.38.1.58.11.2.01.39,0,.57-.05l7.35,20.32Zm-37.92-21.65c.07-.18.11-.37.13-.57l27.88.09c.08.62.42,1.16.92,1.49l-6.24,12.55-22.69-13.57Zm-.38-2.15l18.91-20.5,44.56,9.82s0,.05,0,.07c0,.07,0,.14,0,.21l-63.07,11.08c-.09-.25-.23-.48-.4-.68Zm41.28,26.17c.03-.11.05-.23.05-.35.04-.65-.22-1.24-.66-1.65l6.9-9.47,35.22,26.69s-.03.05-.04.07l-41.47-15.29Zm41.23,16.15c0,.16,0,.32.03.48l-31.51,9.81-10.73-25.09c.34-.2.62-.49.8-.84l41.47,15.29c-.03.12-.05.23-.05.36Zm-22.31,31.72l-8.96-20.93,31.45-9.79c.12.26.28.48.49.67l-21.42,30.22c-.27-.14-.56-.23-.88-.24-.24-.01-.47.02-.69.08Zm-9.7-21.27l-14.83,4.62c-.26-.57-.77-1-1.39-1.17l4.92-28.41c.2,0,.4-.03.59-.08l10.71,25.04Zm-14.85,6.43c.12-.25.19-.52.21-.81,0-.16,0-.32-.03-.48l14.89-4.63,8.98,20.98c-.2.12-.38.27-.53.44l-23.52-15.5Zm23.01,16.77c0,.14,0,.28.02.41l-18.11,5-6.04-21.14c.32-.13.6-.33.82-.59l23.52,15.5c-.12.25-.2.52-.21.81Zm-12.85,23.75l-5.09-17.81,18.11-5c.15.35.38.65.67.87l-12.57,22.08c-.21-.09-.44-.14-.69-.16-.15,0-.29,0-.43.02Zm21.5,29.64l-22.78-23.5.95-2.02c.17.05.35.09.53.1.43.02.84-.09,1.19-.29l20.11,25.71Zm1.72,2.55c-.27.33-.44.75-.46,1.2-.01.26.02.52.1.76l-46.6,21.78c-.17-.26-.39-.48-.65-.65l22.86-48.62,24.75,25.53Zm-46.73,24.23l46.6-21.78c.13.21.3.39.49.54l-15.38,26.23-31.61-4.33c0-.23-.03-.45-.1-.66Zm48.89,7.34l-16.6-2.28,15.27-26.04c.22.09.46.15.71.17,0,0,0,0,.02,0l2.2,26.63c-.77.16-1.39.75-1.6,1.51Zm-28.65,18.26l11.75-20.03,16.83,2.31c0,.31.06.6.18.87l-28.4,17.21c-.1-.13-.22-.25-.35-.35Zm-2.31-.19l-17.53-24.17,31,4.25-11.63,19.83c-.22-.09-.46-.15-.71-.17-.41-.02-.79.07-1.13.26Zm-65.35-15.08l43.4-9.01c.27.79,1,1.37,1.89,1.42.9.05,1.7-.48,2.05-1.26l17.58,24.24c-.22.21-.4.47-.52.76l-64.39-16.16Zm-.72-.41l10.43-20.52,33.61,10.83c-.02.09-.03.18-.04.27,0,.09,0,.18,0,.27l-44.01,9.14Zm-25.12-31.27c.16-.17.3-.36.4-.58l34.62,11.16-10.45,20.56-24.57-31.15Zm-20.89-17.57l21.1-31.27c.18.09.36.15.56.19l-2.44,45.06c-.5.04-.95.25-1.3.58l-17.92-14.55Zm20.64-31.58l-21.07,31.24-28.29-22.97c.23-.32.37-.7.39-1.12,0,0,0-.01,0-.02l14.02-2.35,7.79-1.31,26.53-4.45c.12.38.33.72.63.97Zm-34.9,52.72l13.95-20.68,17.88,14.52c-.18.29-.29.63-.31,1,0,.08,0,.16,0,.24l-30.91,5.86c-.12-.36-.33-.68-.61-.93Zm-1.77-.5l-11.1-35.34-2.48-7.91c.19-.08.36-.19.52-.31l28.36,23.03-13.98,20.72c-.25-.13-.53-.21-.83-.22-.17,0-.32,0-.48.03Zm-.85.35l-28.04-30.75,13.27-13.05c.31.22.68.36,1.09.38.14,0,.28,0,.42-.02l2.6,8.28,10.99,34.98c-.11.05-.22.12-.32.19Zm-98.15-27.03l11.67-6.48c.36.49.93.82,1.59.86.07,0,.14,0,.21,0l2.54,14.39,3.68,20.85c-.1.03-.19.07-.29.11l-19.41-29.74Zm18.95,30.04c-.26.22-.46.49-.59.81l-48.86-12.81c0-.05.01-.1.02-.15.02-.32-.04-.62-.15-.9l30.14-16.72,19.43,29.77Zm-4.94-35.75c.52-.16.96-.53,1.22-1l24.58,9.57-18.52,26.91c-.26-.13-.54-.21-.85-.23-.07,0-.14,0-.21,0l-3.63-20.57-2.59-14.67Zm7.96,36.02c-.07-.08-.14-.16-.22-.24l18.59-27.02,14.28,5.56c-.04.14-.06.29-.07.44-.02.34.05.66.17.96l-32.75,20.31Zm.29.46l32.74-20.31c.11.13.23.26.36.36l-11.56,19.63-21.38.83c-.03-.18-.09-.36-.16-.52Zm18.4-28.18l14.11-20.5c.14.16.31.31.49.42l1.04,24.57c-.63.11-1.17.49-1.48,1.03l-14.17-5.51Zm-25.22-9.82c.03-.13.05-.26.06-.39,0-.14,0-.28-.02-.41l38.83-10.76c.03.13.08.26.14.38l-14.31,20.79-24.7-9.61Zm-.93-2.3l11.85-25.58,28.03,15.05c-.08.2-.12.41-.14.64,0,.03,0,.05,0,.08l-13.09,3.62-25.83,7.16c-.17-.4-.45-.74-.82-.97Zm41.31-7.73c.14.04.28.06.43.07.26.01.52-.02.76-.1l12.34,13.54-11.41,11.22c-.31-.23-.68-.38-1.09-.42l-1.03-24.31Zm1.7-.27c.5-.33.85-.86.94-1.48l24.03.87c.07.37.23.71.47.99l-13.23,13.01-12.22-13.4Zm-.2-3.66l8.37-23.69,17.45,24.81c-.38.35-.64.84-.68,1.39l-24-.87c-.09-.71-.52-1.32-1.15-1.64Zm1.37,30.94c.04-.15.07-.31.08-.48.03-.53-.14-1.03-.45-1.42l11.38-11.2,28.03,30.74c-.06.08-.12.16-.18.24l-38.87-17.89Zm-14.25,20.69l11.38-19.33c.22.09.46.15.72.17.81.04,1.54-.37,1.93-1.03l38.86,17.88c-.02.08-.04.16-.06.24l-52.83,2.06Zm-22.82,38.75l22.49-38.19,51.98-2.03-74.06,40.65c-.12-.16-.25-.3-.41-.42Zm-1.03-.43v-35.01c.97-.13,1.74-.91,1.83-1.91l21.04-.82-22.31,37.89c-.18-.07-.36-.13-.56-.15Zm-51.51-49.69c.12-.15.21-.32.29-.5l48.85,12.81c0,.05-.01.1-.01.15-.06,1.12.75,2.07,1.84,2.22v35.01c-.37.05-.72.2-1.01.42l-49.95-50.11Zm-3.7-.68l-25.36,11.52c-.09-.14-.19-.26-.3-.37l16.43-21.19,9.49,8.25c-.2.3-.33.66-.35,1.06-.02.26.02.5.09.73Zm-23.83,20.23l-2.29-5.75c.61-.34,1.04-.98,1.09-1.74.01-.26-.02-.5-.09-.73l25.36-11.52s.04.06.06.09l-22.22,20.09c-.34-.29-.78-.48-1.26-.5-.22-.01-.44.01-.64.06Zm-10.1-2.39l5.23-3.75c.36.39.86.64,1.43.67.22.01.44,0,.64-.06l2.29,5.75c-.35.19-.63.48-.82.83l-8.77-3.43Zm4.91-4.2l-5.52,3.96-45.38-17.75,50.66,12.54s-.01.08-.01.13c-.02.4.07.79.25,1.12Zm-52.8-14.82s.01-.08.01-.12c.02-.36-.05-.7-.19-1.01l33.87-21.34,19.69,34.59c-.31.23-.55.55-.7.92l-34.37-8.51-18.31-4.54Zm30.28,31.66l17.08-12.27,9.09,3.56c-.03.13-.05.26-.06.4,0,.16,0,.32.03.47l-26.08,7.97s-.04-.08-.07-.13Zm-30.76-30.55c.09-.11.16-.22.23-.34l47,18.38-16.79,12.06c-.36-.39-.86-.64-1.43-.67-.5-.03-.96.12-1.34.39l-27.66-29.83Zm26.68,29.56l-34.35-25.55,4.61-3.82c.35.33.81.54,1.33.57.5.03.96-.12,1.34-.39l27.08,29.19Zm-58.62-45.52l15.68-12.44,13.41,25.31c-.24.17-.45.4-.6.66l-28.11-11.94c.01-.07.02-.15.02-.22.03-.51-.13-.98-.4-1.36Zm28.53,15.73l-4.71,3.91-23.52-17.49,27.98,11.89c-.04.15-.07.3-.08.46-.02.46.1.89.33,1.24Zm-16.38,16.03c.02-.09.03-.17.03-.26.02-.46-.1-.88-.33-1.24l11.98-9.92,35.16,26.15s-.05.09-.07.14l-46.77-14.86Zm-12.76-28.7c.21-.13.4-.3.56-.49l23.43,17.43-11.87,9.84c-.35-.33-.81-.54-1.33-.56-.21-.01-.42,0-.62.06l-10.17-26.27Zm-3.23-2.19l-16.59.55c.53-.73.56-1.73,0-2.49-.58-.79-1.61-1.05-2.48-.7l-2.31-4.12,4.83-4.1,16.76,10.37c-.1.23-.17.49-.19.76h0s-.01-.27-.01-.27Zm-19.56-2.38c-.56.42-.85,1.06-.85,1.71l-9.27,1.3c-.04-.09-.09-.18-.15-.26l8-6.78,2.26,4.03Zm-.36,3.03l-7.81.26,7.4-1.04c.07.25.18.48.34.7.02.03.05.05.07.08Zm-9.88-6.18l1.93-10.46c.22.01.43-.02.63-.07l5.14,9.16-8.08,6.86c-.15-.14-.33-.25-.53-.34l.9-5.15Zm3.69-11.24l9.06,5.61-4.61,3.91-5.06-9.01c.24-.13.44-.3.61-.51Zm-10.35,49.3l5.06-28.89c1.03-.09,1.87-.92,1.93-1.99,0-.04,0-.09,0-.13l9.86-.33-16.74,31.38s-.08-.03-.12-.04Zm-28.78,32.65l8.1-38.69,18.05,7.41c-.2.63-.11,1.34.31,1.9.07.09.15.17.23.25l-20.13,22.47-6.18,6.9c-.12-.1-.24-.18-.37-.25Zm-1.14-.23l-18.58-48.72c.09-.05.18-.1.26-.16.24-.18.43-.4.57-.65l26.48,10.87-8.1,38.71c-.21-.05-.42-.06-.63-.05Zm-21.34-49.42s.05.07.07.1c.21.29.49.5.79.65l-12.33,37.91-37.11-13.94c.09-.38.07-.77-.05-1.15l31.73-15.38,16.91-8.2Zm-48.88,23.08s-.05-.07-.07-.1c-.24-.32-.56-.56-.91-.69l1.7-6.54,46.04-15.32-46.77,22.66Zm48.6-24.78l-39.32-5.1,42.57-2.32-1.1,5.86c-.48-.03-.97.11-1.38.41-.4.3-.66.71-.78,1.15Zm3.81-7.46l29.14-1.59-28.99,8.73c-.06-.14-.14-.27-.23-.4-.27-.37-.64-.61-1.04-.74l1.12-5.99Zm-14.5,48l12.34-37.94c.29.05.59.05.88-.02l18.55,48.64c-.19.07-.38.17-.56.3-.21.15-.38.34-.51.55l-30.7-11.53Zm-4.31,13.24l4.14-12.72,30.64,11.51c-.05.16-.08.31-.1.48l-33.54,2.25c-.06-.31-.18-.61-.38-.89-.21-.28-.47-.49-.75-.63Zm-2.2.19c-.05.04-.1.08-.15.13l-20.43-17.66-10.82-9.35c.04-.06.07-.11.1-.17l37.13,13.95-4.14,12.74c-.57-.12-1.18,0-1.68.37Zm-45.36-.57c-.15-.21-.34-.37-.54-.5l12.07-24.97c.15.05.31.08.47.1l.92,26.68-12.52-.27c-.04-.36-.17-.72-.4-1.03Zm12.54-25.39c.32-.05.64-.18.92-.39.05-.04.1-.08.14-.12l10.7,9.24,20.56,17.77c-.17.27-.28.57-.33.87l-31.07-.67-.92-26.71Zm3.53,68.58l29.54-39.06c.54.29,1.2.34,1.79.1l9.19,16.51-40.33,22.66c-.06-.08-.12-.15-.19-.21Zm-1.19-.61l-1.41-40.71,31.05.67c.04.35.17.69.4,1,.08.1.16.19.25.27l-29.53,39.05c-.24-.14-.49-.23-.76-.27Zm-33.75,8.63c.23-.36.34-.77.33-1.19l31.05-4.83c.07.26.18.51.35.73.27.37.64.62,1.05.75l-4.83,26.28c-.47-.02-.96.11-1.37.41-.06.04-.11.09-.16.14l-26.42-22.29Zm-29.1,36.21l-18.95,14.64c-.29-.24-.63-.4-1-.46l1.84-18.39,17.89,2.47c-.17.57-.11,1.2.22,1.73Zm-18.06-4.75l1.58-15.85c.38-.02.77-.14,1.11-.38l16.27,17.95c-.13.06-.26.13-.37.23-.21.16-.38.34-.52.55l-18.07-2.5Zm21.54,2.38s-.03-.04-.05-.06l7.71-11.11,15.22-21.93c.38.2.82.28,1.24.22l7.23,27.13-31.04,6.33c-.07-.2-.17-.4-.3-.58Zm-.45-.44c-.11-.08-.23-.15-.35-.21l-2.29-25.03,25.03-8.37c.06.12.12.23.21.34.08.11.18.21.28.3l-22.87,32.97Zm-.91-.38c-.21-.03-.43-.04-.65,0l-16.45-18.14c.41-.48.58-1.12.47-1.74l14.36-4.8,2.26,24.68Zm-18.76-21.62l-3.66-22.39,15.84-14.26c.14.12.29.22.45.3l-12.13,36.4c-.17-.03-.34-.05-.51-.05Zm13.15-36.18c.11.02.21.03.32.04l2.98,32.53-14.47,4.84c-.06-.13-.13-.26-.22-.38-.2-.27-.46-.48-.74-.62l12.13-36.41Zm.86,0c.28-.06.55-.18.8-.37.06-.04.11-.09.16-.13l15.88,13.44,11.33,9.58c-.3.46-.4,1.02-.3,1.55l-24.91,8.33-2.97-32.4Zm1.31-.92c.06-.09.11-.18.15-.27l33.8,10.4-4.81,12.39c-.59-.15-1.24-.04-1.76.36-.06.04-.11.09-.16.13l-11.11-9.4-16.1-13.62Zm34.47,10.29l27.31,8.41c-.03.15-.05.3-.05.45l-31.07,4.83c-.07-.23-.18-.46-.33-.67-.19-.25-.42-.45-.68-.59l4.82-12.43Zm21.68,39.42l-19.47,3.97-7.24-27.16c.16-.07.31-.15.46-.26.06-.04.11-.09.17-.13l26.42,22.29c-.25.39-.36.84-.33,1.29Zm-8.71,44.39l-10.63-39.89,19.44-3.97c.07.2.17.4.3.58.25.34.59.58.97.72l-9.61,42.55c-.16-.01-.32-.01-.47,0Zm-1.19.58l-41.34-32.78c.22-.37.32-.81.3-1.24l31.08-6.34,10.64,39.92c-.16.07-.31.15-.46.26-.07.06-.14.12-.21.18Zm-33.35-8.17l-8.82-23.83c.1-.05.19-.11.28-.17.08-.06.14-.12.21-.18l41.34,32.78c-.05.09-.1.18-.14.28l-32.87-8.87Zm1.48,3.99l-1.25-3.37,31.11,8.4-27.29-3.01c0-.43-.14-.85-.42-1.22-.51-.69-1.37-.98-2.16-.8Zm-2.12-4.17l-29.16-7.87c.07-.51-.05-1.04-.37-1.5l18.93-14.62c.52.49,1.24.68,1.92.53l8.68,23.47Zm-27.53-6.87l27.77,7.5,1.38,3.73c-.1.05-.19.11-.28.17-.23.17-.42.39-.56.62l-28.31-12.03Zm-24.56,58.94l20.26-58.2c.61.17,1.29.07,1.84-.33.23-.17.42-.39.56-.63l30,12.75c-.16.57-.08,1.2.27,1.73l-52.26,45.15c-.19-.2-.42-.35-.66-.46Zm-.52-.15c-.44-.07-.89,0-1.3.21l-10.74-18.59c.92-.7,1.1-2.01.41-2.94-.04-.05-.08-.1-.12-.15l8.46-9.83,23.35-27.13c.07.06.15.11.22.16l-20.28,58.26Zm19.66-58.82s0,0,0,.01l-9.23,10.73-5.13,5.96-17.48,20.31c-.33-.22-.71-.34-1.1-.35l-3.77-37.33,36.29-.44c.03.39.16.77.41,1.11Zm-96.15,23.9c-.73-.59-1.8-.64-2.59-.05-.51.38-.8.95-.84,1.55l-31.31,1.94s-.01-.07-.02-.1l32.55-13.08,2.22,9.75Zm-1.71-9.96l33.68-13.54-31.44,23.41-2.24-9.87Zm50.06,47.91c-.06.05-.13.1-.18.15l-20.53-14.99c.09-.12.16-.24.22-.37l26.45,8.05-3.74,6.98c-.69-.35-1.55-.31-2.22.18Zm2.33,3.51c.07-.04.13-.08.19-.13.35-.26.6-.61.73-.99l50.39,10.71c-.01.15,0,.3.01.46l-42.21,11.51-9.12-21.55Zm.63-3.08c-.08-.11-.18-.22-.28-.31l3.82-7.12,19.21,5.85c0,.08-.01.15,0,.23l-22.36,2.19c-.06-.29-.18-.58-.37-.84Zm-20.46,76.25c-.16.13-.29.27-.4.43l-24.15-12.34,8.41-12.98c.56.27,1.22.28,1.8,0l14.33,24.88Zm-13.87-25.17c.5-.41.76-1.01.76-1.62l10.31,20.84-11.07-19.22Zm-2.88-3.07l-18.1-12.34,7.78-11.19c.46.24,1,.3,1.51.17l9.38,22.94c-.1.05-.21.11-.3.18-.1.07-.19.16-.27.24Zm-6.22-18.47l9.02,18.24c-.49-.38-1.13-.51-1.72-.38l-7.3-17.85Zm-1.96-5.19s.06-.04.09-.06c.35-.26.59-.6.73-.98l31.18,6.82c-.04.5.09,1.01.41,1.44.28.38.66.63,1.08.76l-7.21,43.44c-.26,0-.51.04-.76.14l-25.51-51.56Zm71.27,47.33l-21.4,17.69c-.45-.42-1.06-.62-1.65-.56l-3.21-13.59,26.01-4.06c.06.18.15.35.26.52Zm-23.59,17.25c-.18.07-.35.16-.52.28-.16.12-.29.25-.41.4l-18.57-10.87c.13-.29.19-.6.19-.92l16.08-2.51,3.22,13.62Zm-20.87-13.1l7.21-43.42c.1,0,.19,0,.29-.01l10.02,42.38-16.04,2.51c-.07-.24-.18-.47-.33-.68-.3-.4-.71-.66-1.15-.78Zm6.42-47.45c-.14.06-.27.14-.4.23-.35.26-.59.6-.73.98l-31.18-6.82c.02-.28,0-.56-.09-.83l26.65-12.68,5.74,19.11Zm-5.25-19.35l13.94-6.63s.05.08.08.12c.21.28.48.5.78.64l-8.29,25.08c-.24-.05-.49-.05-.74-.01l-5.77-19.19Zm-29.09,11.46l-4.52-44.11,23.56,6.78c-.08.54.04,1.11.39,1.58.13.18.29.33.46.45l-19.2,35.44c-.22-.09-.46-.13-.7-.14Zm-4.58-44.69l-1.08-10.5c.27-.06.54-.18.78-.36.09-.07.18-.15.26-.23l23.91,17.75c-.03.06-.06.12-.09.18l-23.78-6.84Zm26.05,9.76l6.97,23.18-26.73,12.71s-.05-.08-.08-.12c-.13-.18-.29-.33-.46-.45l19.2-35.44c.35.13.73.17,1.1.11Zm.52-.16c.14-.06.27-.14.4-.23.02-.02.04-.04.07-.05l20.56,15.02c-.33.53-.41,1.18-.22,1.77l-13.87,6.6-6.94-23.1Zm23.38,17.88l9.09,21.49-17.32,4.72c-.07-.16-.15-.31-.25-.45-.21-.28-.48-.5-.78-.64l8.29-25.08c.32.06.65.05.96-.04Zm9.31,21.99l18.37,43.39c-.07.04-.13.08-.19.13,0,0-.02.02-.03.02l-35.98-37.2c.36-.46.52-1.04.44-1.6l17.39-4.74Zm17.76,43.92c-.32.41-.47.92-.43,1.43l-26.03,4.07-10.03-42.42c.18-.07.35-.16.51-.28l35.98,37.2Zm1.33,3.37l-1.42,27.74-40.36,20.87s-.03-.04-.04-.06c-.04-.06-.09-.11-.13-.16l41.22-48.65c.23.13.48.22.74.27Zm-41.44,46.93l16.34-26.66c.67.3,1.49.24,2.12-.23.89-.66,1.11-1.89.52-2.82l20.64-17.06-39.63,46.77Zm15.1-28.76l-18.9.86-.75-11.65c.3-.06.59-.18.85-.38.14-.11.26-.23.37-.36l18.58,10.88c-.09.21-.14.42-.16.65Zm-19.44.88l-43.96,2s0-.05-.01-.08l41.48-14.71c.05.11.11.21.19.31.39.52.96.81,1.56.84l.75,11.64Zm-44.67.75l17.87-27.58,24.2,12.37c-.13.37-.16.77-.08,1.15l-41.48,14.71c-.05-.11-.11-.21-.19-.31-.1-.13-.21-.24-.33-.35Zm-2.55-38.63c.08-.22.12-.44.12-.67l27.88-3.12c.07.27.18.52.36.76.1.13.21.25.33.35l-8.44,13.03-20.24-10.34Zm-.57-2.27l10.68-15.37,18.09,12.33c-.16.3-.25.63-.26.97l-27.88,3.12c-.07-.27-.18-.52-.36-.76-.08-.11-.18-.21-.28-.3Zm-4.71-26.51c.13-.25.2-.52.22-.79l22.15-1.19c.06.31.18.61.38.88.08.11.18.21.28.3l-7.78,11.2-15.25-10.4Zm-2.14-3.04l-.51-1.95,23.71,2.55-20.87,1.12c-.06-.31-.18-.61-.38-.88-.47-.63-1.23-.92-1.96-.83Zm-.65-2.52l-13.52-51.98c.05-.02.1-.04.15-.06l.19.05,38.98,53.66c-.31.29-.51.65-.6,1.04l-25.2-2.7Zm-12.83-52.43c.21-.2.36-.44.47-.7l34.59,9.95,4.54,44.32c-.18.04-.36.11-.52.2l-39.07-53.78Zm.61-1.22c0-.05.01-.11.02-.16l22.55-1.4,8.75-.54c.06.3.18.6.38.86.4.54,1.01.83,1.64.85l1.05,10.28-34.39-9.89Zm35.38-1.82l27.45,5.63-1.98,11.82c-.5-.05-1.02.08-1.46.41-.09.07-.18.15-.26.23l-23.91-17.74c.06-.11.11-.22.15-.34Zm27.98,5.74l32.41,6.65c0,.09,0,.18,0,.27l-33.1,6.23c-.07-.21-.17-.42-.31-.61-.25-.34-.59-.58-.96-.72l1.98-11.82Zm33.28,8.52l-7.35,13.71-26.56-8.08c.02-.12.03-.24.03-.36l33.1-6.33c.07.21.17.41.31.6.13.18.29.33.47.46Zm.48.25c.5.19,1.06.18,1.56-.02l10.76,18.62c-.26.23-.44.52-.56.83l-19.07-5.8,7.3-13.62Zm39.7,33.68l-50.39-10.71s0-.03,0-.05l22.4-2.2c.07.24.18.48.34.7.7.93,2.02,1.13,2.95.43.19-.14.35-.31.48-.5l24.22,12.32s0,0,0,0Zm-23.75,56.32l-18.34-43.32,42.14-11.49c.07.16.15.31.25.45.17.23.38.41.61.55l-23.44,53.84c-.39-.13-.81-.14-1.22-.02Zm22.1,19.81l-22.73,11.75,1.41-27.43c.37-.04.74-.17,1.06-.41.09-.07.17-.14.25-.22l20.19,14.46c-.34.55-.4,1.24-.17,1.85Zm-25.55,66.57l2.78-54.19,23.02-11.9s.01.02.02.03c.21.28.47.49.76.63l-26.44,65.45c-.05-.01-.1-.02-.15-.03Zm-38.09-31.28c.37-.56.46-1.26.23-1.89l40.08-20.72-2.76,53.87c-.38.03-.77.16-1.1.41-.05.04-.09.07-.13.11l-36.32-31.77Zm-1.62-3.28l-1.82-28.14,18.89-.86c.06.31.18.62.38.89.11.15.23.27.37.38l-17.1,27.9c-.23-.1-.48-.16-.73-.18Zm-46.49-25.47c.09-.21.14-.43.16-.65l43.97-2,1.82,28.15c-.3.06-.59.18-.85.38-.16.12-.29.25-.41.4l-44.69-26.28Zm-3.86-40.08c.19-.14.35-.31.48-.5l20.19,10.32-17.84,27.53c-.25-.12-.53-.19-.8-.2l-2.85-36.77c.29-.06.57-.18.83-.37Zm-5.8-28.71c.22-.07.43-.17.63-.32.12-.09.22-.18.32-.29l15.24,10.39-10.68,15.36c-.33-.17-.7-.25-1.07-.24l-4.44-24.91Zm-34.39-9.6l32.41,3.48.56,2.15c-.16.07-.32.15-.47.26-.35.26-.59.6-.73.98l-31.77-6.88Zm-3.36-2.08c-.16-.21-.35-.38-.56-.52l21.8-46.35c.29.09.6.12.91.08l13.47,51.78-35.21-3.78c0-.42-.14-.85-.41-1.21Zm-1.77-.85l-4.93-29.88,26.96-16.82c.14.18.31.32.5.44l-21.8,46.35c-.23-.08-.47-.11-.72-.1Zm-19.59-20.73l14.16-8.83,4.9,29.66c-.23.07-.45.18-.65.33,0,0,0,0-.01,0l-18.65-18.98c.48-.62.59-1.46.26-2.18Zm10.3-32.23l3.77,22.82-14.35,8.95c-.2-.24-.43-.42-.69-.55l10.78-31.26c.16.03.33.05.5.04Zm1.89-1.33l28.82,7.34-26.44,16.49-3.73-22.6c.23-.07.45-.17.65-.32.33-.24.56-.56.7-.91Zm59.63-30.09l-27.48,34.54c-.71-.43-1.64-.41-2.35.11-.72.54-1,1.45-.77,2.27l-28.9-7.36c.04-.3,0-.62-.09-.91l59.58-28.65Zm.81-.15l5.08,22.35-32.63,13.11c-.04-.08-.09-.15-.15-.23-.05-.07-.12-.14-.18-.21l27.87-35.03Zm39.14,7.94c-.02.23,0,.47.06.7l-33.61,13.51-5.1-22.4,38.65,8.2Zm1.49,2.19l-5,29.93-27.43-5.63c.03-.4-.06-.81-.26-1.18l31.79-23.67c.25.27.57.45.9.55Zm1.64-.18l26.84,36.05c-.24.24-.42.52-.53.83l-32.42-6.66,5.01-29.95c.38.01.76-.07,1.11-.27Zm1.06-1.59l22.99-.27,3.77,37.38c-.19.04-.37.11-.55.21l-26.84-36.05c.36-.35.57-.8.63-1.27Zm20.44-25.54l2.5,24.72-22.94.28c-.05-.34-.18-.67-.4-.97-.05-.06-.1-.12-.15-.18l19.93-24.17c.32.2.69.31,1.06.32Zm1.67-.75l31.01,19.98,6.93,4.47c-.09.18-.16.38-.19.57l-36.38.44-2.5-24.77c.27-.06.54-.18.78-.36.13-.1.25-.21.35-.33Zm.42-.81l41.06,5.68-1.84,18.44c-.38.03-.75.16-1.08.41-.12.08-.22.18-.31.28l-7.26-4.68-30.69-19.78c.05-.11.1-.23.13-.35Zm.06-.84l41.15-11.07c.06.14.14.28.24.42.32.43.76.7,1.25.8l-1.58,15.83-41.03-5.68c0-.1,0-.2-.02-.3Zm-.25-.75l39.13-35.23,3.6,22.05c-.23.07-.45.17-.65.33-.65.48-.94,1.27-.83,2.01l-41.14,11.06c-.03-.08-.07-.15-.11-.22Zm31.91-79.43l7.11,43.56-38.5,34.66,30.8-78.29c.19.05.39.07.58.06Zm1.06-.33l22.3,26.8c-.66.71-.76,1.81-.19,2.63l-15.58,14.03-7.06-43.22c.18-.05.36-.13.52-.24Zm71.09,5.23c0,.19.04.38.1.56l-45.56,21.31s-.05-.09-.08-.13c-.66-.89-1.9-1.11-2.82-.52l-22.3-26.8c.26-.28.43-.61.51-.97l70.16,6.54Zm1.1,1.78l-12.42,32-33.84-10.42c.06-.33.04-.67-.07-1l45.56-21.31s.05.09.09.13c.19.25.42.45.68.59Zm1.49.2l14.91,39.42c-.13.06-.27.14-.39.23-.26.2-.46.44-.61.71l-27.3-8.4,12.4-31.96c.32.08.66.08.99,0Zm1.6-1.74l12.55.27,1.41,40.71s-.08.01-.12.02l-14.92-39.46c.09-.05.18-.1.27-.17.46-.34.75-.84.83-1.38Zm9.84-29.81c-.25.65-.17,1.42.27,2.02.15.21.34.37.54.5l-12.07,24.97s-.07-.02-.1-.03l4.21-29.53c.45,0,.9-.13,1.29-.42.18-.13.33-.29.45-.46l5.42,2.94Zm-5.06-4.58l8.89-2.96-1.61,6.2c-.52-.07-1.07.06-1.52.4-.18.13-.33.29-.45.46l-5.42-2.94c.14-.37.18-.77.1-1.16Zm14.32-23.86l-5.26,20.27-9.23,3.07c-.06-.12-.12-.23-.2-.34-.1-.13-.2-.24-.32-.34l14.88-22.72s.09.04.13.06Zm2.83-1.42l40.17,5.21c0,.13.01.27.04.4l-47.68,15.87,5.17-19.93c.52.06,1.07-.06,1.52-.4.4-.3.66-.71.78-1.15Zm46.45-18.53l-2.85,15.23-43.57,2.38c0-.05-.02-.1-.03-.15l45.26-18.42c.04.08.09.15.14.22.27.37.64.62,1.04.74Zm26.86,12.88c-.08.24-.12.48-.11.73l-29.04,1.58,2.82-15.1c.48.03.96-.11,1.38-.41.17-.13.32-.28.44-.44l24.51,13.63Zm1.48,2.73l-4.08,19.51-26.38-10.83c.08-.29.09-.59.04-.89l29.12-8.76c.04.06.08.13.13.19.3.41.72.67,1.18.79Zm15.35,26.47c-.08.04-.16.09-.24.15-.21.16-.38.35-.52.55l-18.17-7.46,4.11-19.66c.25,0,.51-.05.75-.15l14.06,26.55Zm4.42-30.95c.1.94.81,1.7,1.74,1.86l-5.05,28.82c-.2,0-.41.01-.61.06l-14.09-26.61s0,0,0,0c.56-.42.85-1.06.85-1.72l17.15-2.41Zm4.61-18.19c.09.06.18.11.27.16.1.06.2.11.31.15l-1.8,10.27-.98,5.31c-.07,0-.13-.02-.2-.02-1.09-.06-2.02.72-2.2,1.78l-17.24,2.43c-.07-.25-.18-.48-.34-.7h0l.18.2,21.99-19.57Zm36.69-15.64l-24.22,20.55-9.21-5.7c.11-.23.17-.49.19-.76.01-.23-.01-.44-.07-.65l33.25-13.54s.04.07.06.11Zm.86.76l-6.22,29.59s0,0-.01,0c-.7-.04-1.34.27-1.76.78l-16.61-10.28,24.09-20.43c.15.14.32.25.51.34Zm10.79,17.53l-15.8,12.53c-.2-.16-.42-.29-.67-.37l6.2-29.53c.09.02.19.03.28.04.26.01.52-.02.75-.1l9.23,17.42Zm31.41-25.44c.03.15.07.3.13.43l-31.1,24.66-9.17-17.31c.56-.35.94-.96.98-1.67,0-.12,0-.23,0-.34l29.97-4.42,9.21-1.36Zm.86,1.35l-16.95,49.54c-.1-.02-.2-.04-.31-.04-.3-.02-.59.03-.86.13l-13.46-25.4,31.12-24.67c.13.17.28.32.45.44Zm18.15,28.91l-33.89,21.36c-.19-.23-.42-.42-.69-.55l16.92-49.45c.2.07.4.11.62.13.26.01.51-.02.75-.1l16.29,28.62Zm11.92-9.35c-.16.27-.26.59-.27.93-.02.35.05.67.18.97l-11.37,7.16-16.26-28.56c.14-.09.26-.19.38-.31l27.34,19.81Zm1.93,3.16l4.43,26.76,2.34,14.17c-.06.02-.13.04-.19.07l-19.7-34.61,11.38-7.17c.36.46.91.76,1.54.79.07,0,.13,0,.2,0Zm24.9,19.91l-16.44,21.21c-.28-.16-.61-.27-.96-.29-.06,0-.13,0-.19,0l-2.32-14.01-4.46-26.92c.31-.09.58-.25.81-.46l23.55,20.47Zm-23.2-20.89c.19-.3.31-.65.33-1.03,0-.12,0-.25-.01-.37l47.87-11.18c.09.26.23.5.41.7l-25.06,32.33-23.54-20.46Zm48.07-13.39c0,.1,0,.19,0,.28l-47.89,11.18c-.23-.58-.71-1.03-1.31-1.23l3.51-18.65,45.69,8.41Zm1.05,1.94l-13.82,40.04c-.1-.02-.21-.04-.31-.04-.58-.03-1.12.18-1.52.53l-9.51-8.27,25.07-32.33s.07.05.1.07Zm1.88.13l15.68,24.02-30.1,16.7c-.2-.27-.46-.49-.76-.64l13.81-40.01c.15.04.29.07.45.08.33.02.64-.04.93-.16Zm27.89,15.64c-.1.23-.16.47-.18.73-.02.32.04.62.15.89l-11.71,6.5-15.68-24.03c.12-.09.23-.2.33-.32l27.09,16.23Zm-4.77-35.35l6.08,34.17c-.41.13-.76.38-1.03.71l-27.07-16.22c.12-.24.19-.51.2-.79.03-.46-.1-.89-.33-1.25l20.61-17.18c.35.32.81.53,1.33.56.07,0,.14,0,.21,0Zm1.62-.88l17.58,9.44-11.86,25.61c-.16-.05-.34-.09-.52-.1-.07,0-.14,0-.21,0l-6.08-34.17c.44-.14.82-.42,1.08-.79Zm35.23-28.67l-17.42,37.62-17.56-9.43c.08-.2.12-.41.14-.64.02-.43-.08-.83-.28-1.18l34.75-26.67c.11.11.24.21.37.3Zm1.29.32l10.86,51.86c-.41.14-.77.42-1.02.77l-28.06-15.07,17.43-37.65c.16.05.34.09.52.09.09,0,.19,0,.28,0Zm20.5,27.73l-8.5,24.06c-.11-.02-.22-.04-.33-.04-.09,0-.19,0-.28,0l-10.86-51.86c.1-.03.2-.08.29-.13l19.67,27.97Zm.73-7.24c-.27.33-.44.75-.46,1.21-.05.86.43,1.63,1.16,2l-1.2,3.4-18.62-26.47,19.13,19.85Zm16.5,30.78l-16.62-23.62,1.33-3.77c.11.02.22.04.33.04.29.01.57-.03.83-.12l14.12,27.46Zm56.6-30.51c.02.28.1.54.22.78l-53.02,31.91c-.36-.52-.95-.88-1.63-.92-.29-.02-.57.03-.83.12l-14.97-29.1c.49-.34.83-.88.9-1.51l69.34-1.29Zm1.66,1.91l-3.64,21.25c-1.16-.05-2.14.84-2.2,2,0,.07,0,.13,0,.19l-12.85,2.15-35.45,5.94c-.02-.09-.04-.18-.07-.27l53.07-31.94c.29.34.69.57,1.14.67Zm1.5-.23l10.99,16.73-14.39,5.82c-.26-.47-.7-.82-1.22-.98l3.65-21.29c.35-.02.67-.12.96-.28Zm-12.41-28.94l32.02,40.63s-.02.02-.04.03l-18.7-12.69c.1-.23.17-.49.18-.76.06-1.17-.83-2.17-2-2.23-.24-.01-.48.02-.7.08l-10.78-25.07h0Zm40.68,17.52l-6.8,22.5c-.08-.01-.15-.02-.23-.03-.44-.02-.85.09-1.2.3l-32.02-40.63c.11-.11.2-.23.29-.36l39.97,18.23Zm13.83-45.75l-13.67,45.22-39.9-18.2c.05-.16.08-.33.09-.51.01-.29-.03-.56-.12-.81l52.68-26.5c.22.35.54.63.92.8Zm.79.18l3.88,51.82c-.57.12-1.07.47-1.37.95l-16.46-7.51,13.69-45.29c.08.01.15.02.23.03.01,0,.02,0,.03,0Zm1.8-.87l22.7,13.58-19.5,39.19c-.18-.06-.38-.1-.58-.11l-3.88-51.83c.51-.11.95-.41,1.25-.83Zm-6.92-28.79l25.1,5.53-18.71,20.27c-.31-.21-.68-.34-1.08-.37-.11,0-.22,0-.33.01l-6.3-24.13c.61-.21,1.1-.69,1.32-1.32Zm62.47-34.97l-36.95,40.04-25.42-5.6s0-.03,0-.04c.02-.35-.05-.68-.18-.98l62.45-33.55s.06.08.1.12Zm1.69.76l7.62,47.86c-.64.19-1.16.68-1.39,1.31l-44.25-9.75,36.73-39.81c.32.22.7.37,1.11.39.06,0,.12,0,.17,0Z"/>
        </g>
      </g>
    </g>
  </g>
</svg>