<?xml version="1.0" encoding="UTF-8"?>
<svg id="Layer_6" data-name="Layer 6" xmlns="http://www.w3.org/2000/svg" width="1602.12" height="533.84" xmlns:xlink="http://www.w3.org/1999/xlink" viewBox="0 0 1602.12 533.84">
  <defs>
    <style>
      .cls-1 {
        fill: url(#linear-gradient-2);
      }

      .cls-2 {
        clip-path: url(#clippath-2);
      }

      .cls-3 {
        fill: none;
      }

      .cls-4 {
        clip-path: url(#clippath-3);
      }

      .cls-5 {
        fill: url(#linear-gradient);
      }
    </style>
    <clipPath id="clippath">
      <rect class="cls-3" x="-945.55" y="-29.37" width="826.52" height="439.02" transform="translate(-1064.58 380.28) rotate(-180)"/>
    </clipPath>
    <linearGradient id="linear-gradient" x1="776.38" y1="329.79" x2="659.96" y2="1311.75" gradientUnits="userSpaceOnUse">
      <stop offset="0" stop-color="#fff"/>
      <stop offset=".23" stop-color="#ccdddc"/>
      <stop offset=".35" stop-color="#749ba8"/>
    </linearGradient>
    <clipPath id="clippath-2">
      <rect class="cls-3" x="775.61" y="94.81" width="826.52" height="439.02" transform="translate(2377.73 628.65) rotate(-180)"/>
    </clipPath>
    <clipPath id="clippath-3">
      <polygon class="cls-3" points="1934.85 -203.94 197.07 482.3 292.33 1171.73 2155.7 295.08 1934.85 -203.94"/>
    </clipPath>
    <linearGradient id="linear-gradient-2" x1="953.98" y1="4383.55" x2="1841.79" y2="4383.55" gradientTransform="translate(1609.32 5131.89) rotate(-23.87) scale(1 -1)" gradientUnits="userSpaceOnUse">
      <stop offset="0" stop-color="#90faff"/>
      <stop offset=".18" stop-color="#67c9e5"/>
      <stop offset=".49" stop-color="#1f71b7"/>
      <stop offset="1" stop-color="#90faff"/>
    </linearGradient>
  </defs>
  <rect class="cls-5" y="-316.28" width="1605.92" height="843.87"/>
  <g class="cls-2">
    <g class="cls-4">
      <path class="cls-1" d="m1608.78,158.63c-1.74-.1-3.22,1.24-3.32,2.97-.02.45.05.89.2,1.29l-92.89,49.9c-.54-.67-1.35-1.12-2.28-1.17-1.74-.09-3.22,1.24-3.32,2.98-.09,1.74,1.24,3.22,2.98,3.32.13,0,.26,0,.39,0l9.38,35.9c-1.13.43-1.97,1.49-2.04,2.78-.02.39.03.77.14,1.12l-78.35,39.41c-.53-.78-1.41-1.32-2.43-1.38-1.74-.09-3.22,1.24-3.32,2.98-.1,1.74,1.24,3.22,2.97,3.32.36.02.7-.02,1.03-.12l16.03,37.27c-.87.52-1.48,1.45-1.54,2.54v-.41s-103.1,1.91-103.1,1.91c-.22-1.45-1.43-2.6-2.95-2.68-.76-.04-1.47.19-2.04.61l-29.92-31.06c.4-.49.65-1.11.69-1.8.09-1.74-1.24-3.22-2.98-3.32s-3.22,1.24-3.32,2.98c-.04.64.12,1.24.42,1.75l-51.67,39.66c-.53-.53-1.25-.88-2.06-.93-1.73-.09-3.22,1.24-3.32,2.98-.04.68.15,1.32.49,1.86l-30.64,25.54c-.52-.48-1.2-.79-1.97-.83-1.46-.08-2.74.85-3.17,2.18l-68.73-12.65-5.37,28.52s0,0,0,0c-.94-.05-1.81.32-2.42.95l-40.65-29.45c.23-.41.38-.88.41-1.38.09-1.74-1.24-3.22-2.97-3.32-1.71-.09-3.17,1.2-3.31,2.89l-49.48,7.29-8.92,1.31c-.43-1.12-1.49-1.95-2.77-2.02-1.74-.09-3.22,1.24-3.32,2.98-.02.34.02.66.1.97l-49.43,20.13c-.38-.67-1-1.19-1.75-1.44-.98-.39-2.13-.29-3.04.38-1.39,1.04-1.68,3-.64,4.39.04.05.08.1.13.15l-32.63,29.03c-1.08-1.12-2.85-1.29-4.13-.33-.3.22-.54.48-.73.78l-36.42-20.25c.39-.97.28-2.12-.4-3.03-1.03-1.39-3-1.68-4.39-.64-1.06.79-1.48,2.11-1.16,3.32l-67.3,27.39c-.06-.11-.13-.22-.21-.33-1.03-1.39-3-1.68-4.39-.64-1.39,1.03-1.68,3-.64,4.39.14.19.3.36.47.51l-22.12,33.77c-1.02-.49-2.27-.42-3.24.3-1.39,1.04-1.68,3-.64,4.39.43.58,1.03.97,1.68,1.15l-6.26,43.91c-.66,0-1.34.19-1.91.62-.63.46-1.03,1.12-1.18,1.82l-104.31-9.73c-.02-.62-.22-1.23-.62-1.76-1.04-1.39-3-1.68-4.39-.64-1.39,1.04-1.68,3-.64,4.39.28.37.62.66,1,.87l-46.35,117.8c-1.08-1.08-2.82-1.24-4.09-.3-1.39,1.04-1.68,3-.64,4.39.07.09.15.18.23.27l-29.63,35.94c-1.07-.67-2.47-.66-3.54.14-.52.39-.89.9-1.09,1.47l-57.43-12.18.69-.87-1.46.71-.48-.1.07.3-89.89,43.22c-.04-.05-.07-.11-.11-.16-1.03-1.39-3-1.68-4.39-.64-1.39,1.03-1.68,3-.64,4.39.3.41.69.73,1.12.93l-16.03,46.48c-.85-.18-1.76,0-2.51.55-1.39,1.04-1.68,3-.64,4.39,1.04,1.39,3,1.68,4.39.64,0,0,.01,0,.02-.02l27.73,28.22c-.85,1.09-.91,2.65-.05,3.81,1.03,1.39,3,1.68,4.39.64.52-.39.88-.9,1.08-1.46l51.62,11.17c-.06.74.13,1.5.61,2.14.65.87,1.66,1.31,2.67,1.26l6.6,37.04c-.33.1-.64.26-.93.47-1.39,1.04-1.68,3-.64,4.39.58.78,1.45,1.21,2.36,1.26l4.24,54.67c-.43.09-.85.27-1.23.55-1.39,1.04-1.68,3-.64,4.39,1.04,1.39,3,1.68,4.39.64.23-.17.43-.37.6-.59l66.44,39.07c-.42.99-.32,2.18.37,3.1,1.04,1.39,3,1.68,4.39.64.07-.05.14-.11.2-.17l54,47.24c-.72,1.07-.73,2.53.09,3.62,1.04,1.39,3,1.68,4.39.64,1.39-1.03,1.68-3,.64-4.39-.27-.37-.61-.65-.98-.86l39.32-97.36c.84.17,1.75,0,2.49-.56,1.39-1.04,1.68-3,.64-4.39-1.04-1.39-3-1.68-4.39-.64-.11.08-.2.16-.3.26l-30.04-21.51c.59-1.05.55-2.39-.21-3.42-.23-.31-.51-.57-.82-.76l34.87-80.08c.91.26,1.93.12,2.74-.49,1.39-1.04,1.68-3,.64-4.39-1.03-1.39-3-1.68-4.39-.64-.29.21-.52.47-.71.75l-36.01-18.32c.34-.95.21-2.05-.44-2.92l.26.3,77.7-67.13c1.09.97,2.75,1.08,3.96.18.61-.45,1.01-1.09,1.17-1.77l42.69,4.72c.01.63.21,1.27.62,1.81,1.03,1.39,3,1.68,4.39.64,1.39-1.03,1.68-3,.64-4.39-.38-.51-.88-.87-1.44-1.07l14.29-63.27c.75.07,1.52-.12,2.16-.6,1.39-1.04,1.68-3,.64-4.39-.41-.55-.96-.92-1.56-1.11l7.18-39.07c.7.04,1.43-.16,2.04-.62,1.17-.87,1.56-2.39,1.04-3.69l60.67-34.09-14.06-25.25s0,0,0,0c.76-.56,1.18-1.4,1.25-2.27l49.88-3.35c.08.46.27.92.57,1.32,1.03,1.39,3,1.68,4.39.65,1.37-1.02,1.67-2.94.69-4.32l33.23-37.1,5.99-6.69c1.05.58,2.38.54,3.41-.22,1.39-1.04,1.68-3,.64-4.39-.2-.27-.44-.49-.69-.68l25.01-46.9c.88.33,1.89.26,2.74-.26l25.59-.85c.12,1.56,1.37,2.82,2.97,2.91.37.02.73-.03,1.06-.13l15.11,39.02c-.93.51-1.58,1.46-1.64,2.59-.09,1.74,1.24,3.22,2.98,3.32,1.32.07,2.5-.68,3.02-1.81l69.54,22.09c-.02.13-.04.25-.05.39-.09,1.73,1.24,3.22,2.98,3.32,1.74.1,3.22-1.24,3.32-2.98.01-.24,0-.47-.04-.7l38.77-11.86c.47,1.03,1.48,1.78,2.7,1.85,1.74.09,3.22-1.24,3.32-2.98.04-.73-.17-1.41-.56-1.96l33.03-29.87c.51.44,1.16.71,1.87.75.78.04,1.51-.21,2.09-.65l74.27,74.51c-.38.49-.62,1.09-.66,1.76-.09,1.74,1.24,3.22,2.98,3.32,1.74.09,3.22-1.24,3.32-2.98.02-.46-.06-.91-.22-1.32l111.44-61.16c.14,1.53,1.38,2.78,2.97,2.86,1.74.1,3.22-1.24,3.32-2.98,0-.12,0-.23,0-.35l45.96-8.71c.39,1.2,1.49,2.1,2.82,2.17.65.04,1.27-.13,1.79-.44l36.51,46.3-1.09.22,1.58.4.31.39.14-.28,97.15,24.38c0,.07-.01.13-.02.2-.09,1.74,1.24,3.22,2.98,3.32,1.74.09,3.22-1.24,3.32-2.98.03-.51-.07-1-.27-1.44l42.23-25.58c.54.68,1.35,1.13,2.29,1.18,1.74.09,3.22-1.24,3.32-2.98.09-1.74-1.24-3.22-2.98-3.32,0,0-.01,0-.02,0l-3.28-39.59c1.36-.29,2.41-1.46,2.49-2.91.09-1.74-1.24-3.22-2.98-3.32-.65-.03-1.26.13-1.77.43l-32.67-41.78c.52-.53.86-1.24.91-2.04.06-1.09-.44-2.07-1.25-2.68l18.69-32.83c.32.13.66.21,1.02.23,1.74.09,3.22-1.24,3.31-2.97.05-.98-.34-1.87-1.01-2.49l31.84-44.93c.39.21.83.34,1.3.36,1.74.09,3.22-1.24,3.32-2.98.1-1.74-1.24-3.22-2.98-3.32-.29-.02-.57.01-.84.07l-26.19-72.83c.96-.49,1.65-1.47,1.71-2.63.09-1.74-1.24-3.22-2.97-3.32-.09,0-.17,0-.26,0l-11.33-71.15c1.24-.37,2.18-1.48,2.25-2.85.09-1.74-1.24-3.22-2.98-3.32Zm-14.16,117.26l24.79-34.04c.4.22.85.36,1.34.39.29.02.58-.01.85-.07l26.19,72.83c-.3.16-.57.36-.8.59l-52.37-39.7Zm-4.32,132.84l-1.28,2.73-24.79-25.57,25.02,18.65c-.23.41-.37.87-.4,1.37-.06,1.17.52,2.23,1.45,2.82Zm-16.34-64.26l8.99,31.45-19.62,5.42c-.3-.72-.86-1.3-1.57-1.63l11.14-35.29c.17.04.34.07.52.08.18.01.36,0,.54-.02Zm-2.79-5.14l8.07-33.76-5.65,32.63c-.97,0-1.84.44-2.42,1.13Zm.96,4.81l-8.67,27.46,7.06-29.55c.21.9.8,1.66,1.61,2.09Zm11.04,32.56l7.57,26.5c-.38.17-.73.41-1.01.7l-26.56-19.79c.23-.41.37-.87.4-1.37.01-.21,0-.41-.03-.61l19.63-5.42Zm5.47,35.55l-34.12,72.57c-.08-.02-.15-.05-.23-.06l-.17-.24,6.5-98.81c.63-.04,1.21-.26,1.68-.62l26.34,27.17Zm-35.35,72.43c-.43.03-.84.16-1.2.35l-30.19-44.45,37.12-55.2c.25.12.52.21.8.27l-6.52,99.03Zm-38.81-113.43l42.82,10.93c0,.07-.02.14-.02.21-.02.33.02.65.09.95l-55.87,22.34c-.27-.49-.67-.89-1.15-1.18l14.14-33.25Zm-.47-.96l-22.34-5.7c0-.07.02-.14.02-.21.03-.53-.08-1.03-.28-1.48l33.46-20.87c.23.29.51.53.84.72l-11.71,27.54Zm-65.99,80.92l34.33-29.58,26.1,32.66c-.42.43-.71.99-.83,1.61l-59.09-3.2c-.04-.55-.22-1.06-.51-1.49Zm34.95-30.11l13.55-11.67c.53.54,1.25.89,2.07.93.17.01.34,0,.51-.02l10.5,43.19c-.18.07-.35.15-.5.25l-26.12-32.68Zm16.93-10.96c.09-.04.18-.08.27-.12l20.76,30.55-8.79,13.08c-.38-.19-.79-.3-1.24-.33-.17,0-.34,0-.51.02l-10.48-43.21Zm.94-.57c.61-.54,1.01-1.31,1.06-2.19.02-.33-.02-.65-.1-.95l55.87-22.34c.18.31.4.59.67.83l-36.94,54.93-20.57-30.28Zm50.59,75.92c-.06.06-.12.11-.17.18l-27.21-19.94-10.56-7.74c.22-.4.36-.86.39-1.35.05-1-.37-1.92-1.07-2.53l8.61-12.81,30.01,44.19Zm-.64.83s-.05.09-.07.14l-49.85-16.07,6.77-13.31c.27,1.38,1.45,2.46,2.92,2.54.96.05,1.83-.33,2.45-.97l37.78,27.68Zm-50.7-16.18l-51.59-16.63,58.44,3.16-6.85,13.47Zm-54.12-20.3l3.63-67c.5-.04.98-.19,1.4-.45l30.86,38.6-34.35,29.6c-.42-.38-.94-.64-1.53-.75Zm5.66-67.95c.09-.1.18-.2.26-.31l43.94,24.47c-.12.31-.2.64-.22.99-.03.63.12,1.23.42,1.74l-13.56,11.68-30.84-38.58Zm.66-1.03c.12-.31.2-.64.22-.99.02-.34-.02-.66-.1-.97l21.53-8.72,22.76,34.64c-.13.12-.26.24-.37.38l-44.04-24.34Zm5.51-36.73c.08-.08.16-.16.23-.26l27.76,18.84c-.21.4-.35.84-.37,1.32-.01.21,0,.42.03.62l-11.18,4.53-16.46-25.06Zm30.59,23.22c.12,0,.24,0,.35,0l9.24,36.8c-.21.05-.41.13-.6.22l-22.67-34.5,10.95-4.44c.46,1.07,1.49,1.84,2.73,1.91Zm1.15-.16c.89-.29,1.6-.96,1.94-1.83l22.21,5.67-14.09,33.14c-.21-.06-.44-.1-.68-.11-.04,0-.08,0-.13,0l-9.26-36.87Zm.31-5.86l10.08-33.34,24.38,11.12c-.08.24-.13.49-.14.76-.03.53.08,1.03.28,1.48l-33.47,20.87c-.31-.37-.69-.68-1.14-.88Zm36.62-18.27c.22.06.45.1.68.11.65.04,1.25-.13,1.77-.43l29.27,37.6c-.29.3-.53.65-.69,1.05l-42.69-10.9,11.66-27.42Zm3.09-.82c.53-.53.87-1.24.91-2.04.04-.7-.16-1.36-.52-1.9l49.76-42.97c.3.24.63.44,1.01.56l-19.95,83.53c-.06,0-.11-.01-.16-.02-.65-.03-1.25.13-1.77.43l-29.27-37.59Zm-.48-4.83l28.97-58.21,20.8,12.44c-.15.34-.24.71-.26,1.1-.04.74.18,1.43.58,1.99l-49.74,42.95c-.11-.1-.22-.19-.34-.27Zm89.03-96.94c.17.34.39.64.66.9l-24.79,34.03-22.49-17.05c.23-.41.38-.89.41-1.39.01-.27-.01-.53-.06-.79l46.27-15.69Zm-46.53,14.92c-.49-.99-1.48-1.7-2.66-1.76-1.65-.09-3.07,1.12-3.29,2.73l-39.98-.13,90.14-15.83-44.21,15Zm21.92,20.66l-10.26,14.09c-.4-.22-.85-.36-1.34-.39-.27-.01-.52,0-.77.06l-10.94-30.24c.3-.15.57-.35.8-.59l22.51,17.06Zm-13.14,14.02c-.43.21-.8.5-1.1.88l-20.86-12.47,9.31-18.71c.27.09.56.15.86.17.29.02.58-.01.85-.07l10.93,30.21Zm-56.38-32.19c.1-.26.17-.55.2-.84l41.45.14c.12.92.63,1.72,1.37,2.22l-9.28,18.66-33.73-20.17Zm-.56-3.19l28.12-30.48,66.25,14.6s-.01.07-.01.1c0,.11,0,.21,0,.31l-93.78,16.47c-.13-.37-.34-.72-.59-1.01Zm61.38,38.92c.04-.17.07-.35.08-.53.05-.96-.33-1.84-.98-2.46l10.26-14.08,52.36,39.69s-.04.07-.06.1l-61.65-22.73Zm61.3,24.02c-.01.24,0,.48.04.71l-46.85,14.58-15.96-37.3c.5-.3.92-.73,1.19-1.25l61.65,22.73c-.04.17-.07.35-.08.53Zm-33.17,47.17l-13.32-31.12,46.77-14.56c.18.38.42.72.73,1l-31.84,44.93c-.39-.21-.83-.34-1.3-.36-.36-.02-.7.02-1.03.12Zm-14.42-31.63l-22.05,6.86c-.39-.84-1.14-1.49-2.06-1.73l7.31-42.24c.3,0,.59-.04.87-.12l15.93,37.22Zm-22.08,9.56c.18-.37.29-.78.31-1.21.01-.24,0-.48-.05-.71l22.14-6.89,13.35,31.2c-.29.17-.56.4-.78.65l-34.97-23.04Zm34.21,24.93c-.01.21,0,.41.03.61l-26.93,7.44-8.98-31.43c.47-.19.89-.49,1.22-.87l34.97,23.04c-.18.37-.29.78-.31,1.21Zm-19.11,35.31l-7.57-26.48,26.92-7.44c.22.51.56.96,1,1.29l-18.69,32.83c-.32-.13-.66-.21-1.02-.23-.22-.01-.43,0-.64.03Zm31.97,44.06l-33.88-34.94,1.41-3.01c.25.08.51.14.79.15.65.04,1.26-.13,1.77-.43l29.9,38.23Zm2.55,3.8c-.4.5-.65,1.11-.68,1.79-.02.39.03.77.15,1.13l-69.29,32.38c-.25-.39-.57-.72-.96-.96l33.99-72.29,36.8,37.96Zm-69.48,36.03l69.29-32.38c.2.31.44.58.72.8l-22.87,39-47-6.44c0-.34-.05-.67-.15-.98Zm72.7,10.92l-24.68-3.38,22.71-38.71c.33.14.68.23,1.06.25,0,0,.01,0,.02,0l3.28,39.59c-1.15.25-2.07,1.11-2.38,2.25Zm-42.6,27.16l17.47-29.78,25.02,3.43c0,.46.09.9.27,1.29l-42.23,25.58c-.15-.19-.33-.37-.53-.52Zm-3.44-.28l-26.06-35.94,46.09,6.32-17.3,29.49c-.33-.14-.69-.23-1.06-.25-.6-.03-1.18.11-1.67.38Zm-97.17-22.41l64.52-13.4c.41,1.17,1.49,2.04,2.81,2.11,1.34.07,2.53-.71,3.05-1.87l26.13,36.04c-.33.31-.6.7-.77,1.14l-95.74-24.03Zm-1.07-.61l15.51-30.5,49.97,16.11c-.03.13-.04.26-.05.4,0,.14,0,.27,0,.41l-65.43,13.59Zm-37.34-46.49c.25-.25.45-.54.6-.86l51.47,16.59-15.54,30.57-36.53-46.31Zm-31.07-26.12l31.37-46.5c.26.13.54.23.84.28l-3.62,67c-.74.05-1.42.37-1.93.86l-26.65-21.64Zm30.69-46.96l-31.33,46.44-42.07-34.16c.34-.47.55-1.04.59-1.66,0,0,0-.02,0-.02l20.84-3.49,11.58-1.94,39.45-6.61c.17.56.5,1.06.93,1.45Zm-51.89,78.38l20.74-30.75,26.59,21.59c-.27.43-.43.94-.46,1.49,0,.12,0,.24,0,.35l-45.95,8.71c-.18-.54-.49-1.01-.91-1.38Zm-2.63-.74l-16.5-52.54-3.69-11.75c.28-.12.54-.28.77-.47l42.17,34.24-20.78,30.81c-.37-.19-.79-.31-1.24-.33-.25-.01-.48,0-.72.05Zm-1.26.52l-41.69-45.73,19.72-19.4c.46.32,1.02.53,1.62.56.22.01.42,0,.63-.03l3.86,12.31,16.33,52.01c-.17.08-.33.17-.48.28Zm-145.93-40.18l17.35-9.63c.54.73,1.39,1.22,2.37,1.28.11,0,.21,0,.31,0l3.78,21.4,5.47,31c-.15.05-.29.1-.43.17l-28.85-44.22Zm28.18,44.66c-.38.32-.68.74-.87,1.21l-72.64-19.05c.01-.07.02-.15.02-.23.03-.47-.06-.92-.22-1.33l44.81-24.86,28.89,44.27Zm-7.35-53.16c.78-.25,1.43-.79,1.82-1.49l36.55,14.22-27.54,40.02c-.38-.2-.81-.32-1.26-.34-.11,0-.21,0-.31,0l-5.4-30.59-3.85-21.81Zm11.83,53.56c-.1-.13-.21-.24-.33-.35l27.64-40.17,21.23,8.26c-.06.21-.09.42-.1.65-.03.5.07.99.26,1.42l-48.69,30.2Zm.43.69l48.68-30.19c.16.2.34.38.54.54l-17.19,29.19-31.79,1.24c-.05-.27-.13-.53-.24-.77Zm27.35-41.9l20.98-30.49c.21.24.46.46.73.62l1.55,36.53c-.94.16-1.74.73-2.2,1.54l-21.07-8.2Zm-37.5-14.6c.05-.19.08-.38.09-.59.01-.21,0-.41-.03-.61l57.74-16c.05.2.11.39.2.57l-21.28,30.92-36.72-14.29Zm-1.38-3.42l17.61-38.04,41.68,22.38c-.11.3-.18.62-.2.95,0,.04,0,.08,0,.12l-19.46,5.39-38.41,10.64c-.25-.59-.68-1.1-1.22-1.44Zm61.42-11.49c.21.06.42.09.64.1.39.02.77-.03,1.12-.14l18.35,20.13-16.96,16.68c-.46-.35-1.01-.57-1.63-.63l-1.54-36.14Zm2.53-.41c.74-.48,1.27-1.27,1.4-2.2l35.73,1.3c.1.56.35,1.06.7,1.48l-19.67,19.35-18.17-19.92Zm-.3-5.45l12.45-35.23,25.95,36.89c-.57.52-.94,1.24-1.01,2.07l-35.68-1.29c-.13-1.06-.78-1.96-1.7-2.43Zm2.04,46.01c.06-.23.11-.46.12-.71.04-.79-.21-1.53-.67-2.11l16.93-16.65,41.68,45.7c-.1.11-.18.23-.27.36l-57.79-26.6Zm-21.18,30.76l16.92-28.74c.33.14.69.23,1.07.25,1.2.07,2.29-.56,2.87-1.53l57.78,26.59c-.04.12-.07.24-.09.36l-78.55,3.06Zm-33.93,57.62l33.44-56.79,77.28-3.02-110.11,60.43c-.17-.24-.38-.45-.61-.63Zm-1.53-.64v-52.06c1.44-.19,2.59-1.35,2.73-2.84l31.28-1.22-33.17,56.34c-.26-.11-.54-.19-.83-.23Zm-76.59-73.88c.17-.23.32-.48.42-.74l72.64,19.05c0,.07-.02.15-.02.23-.09,1.66,1.12,3.08,2.74,3.29v52.06c-.56.07-1.08.29-1.51.63l-74.27-74.51Zm-5.5-1.01l-37.7,17.13c-.13-.2-.28-.39-.44-.56l24.42-31.5,14.11,12.27c-.3.45-.49.99-.52,1.57-.02.38.03.75.13,1.09Zm-35.43,30.08l-3.41-8.54c.91-.51,1.55-1.46,1.61-2.58.02-.38-.03-.75-.14-1.09l37.7-17.13s.06.09.09.13l-33.03,29.87c-.51-.43-1.16-.71-1.87-.75-.33-.02-.65.02-.95.09Zm-15.01-3.56l7.77-5.58c.54.57,1.28.95,2.13.99.33.02.65-.01.95-.09l3.41,8.55c-.52.29-.94.71-1.22,1.23l-13.04-5.1Zm7.3-6.24l-8.2,5.89-67.47-26.39,75.32,18.65c0,.06-.02.12-.02.19-.03.6.11,1.17.38,1.66Zm-78.5-22.03c0-.06.02-.12.02-.19.03-.53-.08-1.04-.29-1.49l50.36-31.73,29.28,51.44c-.46.35-.82.82-1.04,1.37l-51.1-12.65-27.23-6.74Zm45.02,47.08l25.39-18.24,13.52,5.29c-.05.19-.08.39-.09.59-.01.24,0,.47.04.7l-38.77,11.86c-.03-.06-.06-.13-.1-.19Zm-45.73-45.42c.13-.16.24-.32.34-.5l69.88,27.33-24.96,17.93c-.54-.57-1.28-.95-2.13-1-.74-.04-1.43.18-1.99.58l-41.13-44.35Zm39.66,43.96l-51.08-37.99,6.85-5.67c.52.48,1.21.8,1.98.84.74.04,1.43-.18,1.99-.58l40.26,43.41Zm-87.16-67.68l23.32-18.49,19.94,37.63c-.36.26-.67.59-.89.98l-41.8-17.76c.02-.11.03-.22.03-.33.04-.76-.19-1.46-.6-2.03Zm42.41,23.39l-7.01,5.81-34.97-26.01,41.6,17.67c-.06.22-.1.44-.11.68-.04.68.15,1.32.49,1.85Zm-24.35,23.83c.02-.13.04-.25.05-.39.04-.68-.15-1.32-.49-1.85l17.81-14.76,52.27,38.87c-.04.07-.07.14-.11.21l-69.54-22.09Zm-18.97-42.67c.32-.19.6-.44.83-.73l34.84,25.91-17.65,14.63c-.52-.48-1.21-.8-1.98-.84-.32-.02-.63.01-.92.09l-15.12-39.05Zm-4.8-3.26l-24.67.81c.78-1.08.83-2.58-.01-3.71-.87-1.17-2.39-1.56-3.68-1.03l-3.44-6.13,7.18-6.09,24.92,15.42c-.16.35-.25.73-.28,1.13h0s-.02-.4-.02-.4Zm-29.08-3.53c-.84.62-1.27,1.58-1.26,2.55l-13.78,1.94c-.06-.14-.13-.27-.22-.39l11.89-10.09,3.36,5.99Zm-.53,4.51l-11.61.38,11-1.55c.1.36.27.72.51,1.04.03.04.07.08.11.12Zm-14.69-9.19l2.87-15.56c.32.02.64-.02.94-.1l7.65,13.62-12.02,10.19c-.23-.21-.5-.38-.78-.51l1.34-7.65Zm5.48-16.72l13.46,8.34-6.86,5.82-7.52-13.39c.35-.19.66-.45.91-.76Zm-15.39,73.31l7.52-42.96c1.54-.14,2.78-1.37,2.87-2.96,0-.07,0-.13,0-.2l14.67-.48-24.89,46.66c-.06-.02-.11-.04-.17-.06Zm-42.8,48.54l12.04-57.52,26.83,11.01c-.3.93-.16,1.99.47,2.83.1.14.22.26.34.38l-29.93,33.41-9.19,10.26c-.17-.15-.36-.27-.56-.37Zm-1.7-.35l-27.63-72.44c.13-.07.27-.15.39-.24.36-.27.64-.6.85-.96l39.37,16.16-12.05,57.55c-.31-.07-.62-.09-.93-.07Zm-31.73-73.48c.03.05.07.1.1.15.32.43.72.75,1.17.96l-18.34,56.37-55.17-20.73c.13-.56.11-1.15-.08-1.71l47.18-22.86,25.14-12.18Zm-72.67,34.32c-.03-.05-.07-.1-.1-.15-.36-.48-.83-.83-1.35-1.03l2.53-9.73,68.46-22.78-69.54,33.7Zm72.26-36.84l-58.47-7.59,63.3-3.46-1.63,8.71c-.71-.04-1.43.16-2.05.61-.59.45-.98,1.05-1.16,1.72Zm5.66-11.09l43.33-2.37-43.1,12.97c-.09-.21-.21-.41-.34-.59-.4-.54-.95-.91-1.55-1.11l1.66-8.91Zm-21.56,71.37l18.35-56.4c.43.08.87.07,1.31-.03l27.58,72.32c-.29.1-.57.25-.83.44-.31.23-.57.51-.76.82l-45.65-17.14Zm-6.4,19.69l6.15-18.92,45.55,17.11c-.07.23-.12.47-.14.71l-49.88,3.35c-.08-.46-.27-.91-.57-1.32-.31-.41-.69-.72-1.12-.93Zm-3.27.29c-.08.06-.15.12-.23.19l-30.38-26.26-16.08-13.9c.06-.08.1-.17.15-.25l55.21,20.74-6.16,18.94c-.84-.17-1.76,0-2.51.55Zm-67.45-.85c-.23-.31-.5-.55-.8-.75l17.95-37.13c.23.08.46.12.69.14l1.37,39.67-18.61-.4c-.06-.54-.25-1.07-.6-1.54Zm18.65-37.76c.48-.08.95-.27,1.36-.58.07-.06.14-.12.21-.18l15.9,13.74,30.57,26.42c-.26.39-.42.84-.48,1.3l-46.19-1-1.37-39.71Zm5.26,101.96l43.92-58.08c.81.44,1.78.5,2.66.16l13.66,24.55-59.96,33.69c-.09-.11-.18-.22-.28-.32Zm-1.77-.91l-2.09-60.53,46.16.99c.07.52.26,1.03.6,1.48.11.15.24.28.37.41l-43.9,58.05c-.35-.21-.74-.34-1.13-.4Zm-50.18,12.84c.34-.53.51-1.15.5-1.78l46.17-7.18c.1.38.27.76.52,1.09.41.55.96.92,1.56,1.11l-7.18,39.07c-.7-.04-1.43.16-2.04.62-.08.06-.16.13-.24.2l-39.28-33.14Zm-43.27,53.83l-28.18,21.77c-.43-.36-.94-.6-1.48-.69l2.73-27.34,26.6,3.68c-.26.84-.16,1.78.33,2.58Zm-26.84-7.06l2.36-23.57c.57-.03,1.14-.21,1.64-.56l24.19,26.69c-.19.09-.38.2-.56.33-.31.23-.57.51-.77.82l-26.87-3.72Zm32.03,3.53s-.05-.06-.07-.09l11.46-16.52,22.62-32.61c.57.29,1.22.41,1.85.32l10.75,40.33-46.16,9.42c-.1-.3-.25-.59-.45-.86Zm-.66-.66c-.16-.12-.34-.22-.52-.31l-3.41-37.22,37.22-12.45c.08.17.18.34.3.5.12.17.26.32.41.45l-34.01,49.02Zm-1.35-.56c-.32-.05-.64-.06-.96,0l-24.45-26.97c.61-.72.86-1.67.7-2.58l21.35-7.14,3.36,36.7Zm-27.9-32.15l-5.44-33.29,23.55-21.2c.21.18.44.33.68.44l-18.03,54.12c-.25-.05-.5-.08-.75-.07Zm19.55-53.79c.16.03.32.05.48.06l4.43,48.36-21.51,7.2c-.09-.19-.2-.38-.33-.56-.3-.41-.68-.71-1.1-.92l18.04-54.13Zm1.29-.01c.42-.1.82-.27,1.19-.54.08-.06.17-.13.24-.2l23.62,19.98,16.84,14.25c-.44.68-.6,1.51-.44,2.3l-37.04,12.39-4.41-48.17Zm1.95-1.36c.08-.13.16-.26.22-.4l50.25,15.47-7.15,18.43c-.88-.22-1.84-.05-2.62.53-.09.06-.16.13-.24.2l-16.52-13.97-23.94-20.25Zm51.25,15.31l40.61,12.5c-.05.22-.08.45-.08.67l-46.19,7.19c-.1-.35-.26-.69-.49-1-.28-.38-.63-.67-1.02-.88l7.17-18.48Zm32.23,58.61l-28.96,5.91-10.76-40.38c.24-.1.47-.22.68-.38.09-.06.17-.13.25-.2l39.28,33.14c-.37.57-.54,1.25-.49,1.92Zm-12.94,66l-15.8-59.31,28.91-5.9c.1.3.25.59.45.86.38.51.88.87,1.44,1.07l-14.29,63.27c-.23-.02-.47-.02-.7.01Zm-1.77.86l-61.47-48.74c.33-.56.48-1.2.44-1.84l46.21-9.43,15.81,59.36c-.24.1-.47.22-.68.38-.11.08-.21.18-.31.27Zm-49.59-12.15l-13.11-35.44c.14-.07.28-.16.42-.26.11-.08.21-.17.31-.27l61.47,48.74c-.08.13-.15.27-.21.42l-48.88-13.2Zm2.2,5.94l-1.85-5.01,46.26,12.49-40.57-4.48c-.01-.63-.21-1.27-.62-1.81-.77-1.03-2.04-1.45-3.22-1.18Zm-3.15-6.2l-43.36-11.71c.1-.76-.07-1.55-.54-2.23l28.14-21.74c.77.73,1.85,1.01,2.86.78l12.91,34.89Zm-40.94-10.22l41.28,11.14,2.05,5.55c-.14.08-.28.16-.42.26-.35.26-.63.58-.83.93l-42.09-17.88Zm-36.51,87.64l30.12-86.54c.91.26,1.92.11,2.73-.5.35-.26.63-.58.83-.93l44.6,18.95c-.24.85-.11,1.79.4,2.57l-77.7,67.13c-.29-.3-.62-.53-.98-.69Zm-.78-.23c-.65-.1-1.33,0-1.94.31l-15.97-27.63c1.36-1.04,1.64-2.99.61-4.36-.06-.08-.12-.15-.18-.22l12.58-14.62,34.72-40.34c.11.09.22.16.33.23l-30.16,86.62Zm29.24-87.45s0,.01.01.02l-13.73,15.95-7.63,8.86-25.99,30.19c-.49-.32-1.06-.5-1.63-.51l-5.6-55.51,53.96-.65c.04.57.24,1.15.61,1.65Zm-142.96,35.53c-1.09-.88-2.67-.96-3.85-.08-.77.57-1.2,1.42-1.26,2.3l-46.55,2.88s-.02-.1-.03-.15l48.39-19.45,3.3,14.5Zm-2.54-14.81l50.08-20.13-46.75,34.8-3.34-14.67Zm74.44,71.23c-.1.07-.19.15-.27.23l-30.52-22.29c.13-.17.23-.36.32-.56l39.33,11.97-5.56,10.37c-1.03-.53-2.31-.46-3.3.27Zm3.46,5.23c.1-.06.19-.12.29-.19.52-.39.89-.91,1.09-1.48l74.93,15.93c-.02.22-.01.45.02.68l-62.75,17.11-13.56-32.05Zm.93-4.58c-.13-.17-.27-.32-.42-.46l5.68-10.59,28.56,8.69c-.01.11-.02.23-.01.34l-33.25,3.26c-.09-.44-.27-.86-.56-1.25Zm-30.41,113.38c-.23.19-.43.41-.59.64l-35.9-18.35,12.51-19.3c.83.4,1.82.42,2.68.01l21.31,36.99Zm-20.63-37.43c.74-.62,1.13-1.5,1.13-2.41l15.33,30.98-16.46-28.58Zm-4.28-4.56l-26.91-18.35,11.57-16.64c.69.36,1.49.45,2.25.25l13.95,34.11c-.15.08-.31.17-.45.27-.15.11-.28.23-.4.36Zm-9.24-27.46l13.42,27.11c-.73-.56-1.67-.76-2.56-.57l-10.85-26.55Zm-2.92-7.71s.09-.06.13-.09c.51-.38.88-.9,1.08-1.46l46.35,10.13c-.06.74.13,1.5.61,2.14.42.56.99.94,1.61,1.13l-10.72,64.59c-.38,0-.76.07-1.13.21l-37.93-76.65Zm105.96,70.38l-31.82,26.3c-.67-.63-1.58-.92-2.46-.83l-4.78-20.2,38.67-6.04c.09.27.22.53.39.77Zm-35.07,25.65c-.27.1-.52.24-.77.42-.23.17-.43.38-.6.6l-27.61-16.16c.2-.43.29-.9.28-1.37l23.91-3.73,4.79,20.26Zm-31.03-19.48l10.72-64.56c.14,0,.29,0,.43-.01l14.9,63.01-23.84,3.72c-.1-.35-.26-.69-.5-1.01-.44-.59-1.05-.98-1.71-1.16Zm9.55-70.55c-.2.09-.4.21-.59.34-.52.38-.88.9-1.08,1.46l-46.35-10.13c.04-.41-.01-.83-.14-1.24l39.62-18.85,8.54,28.42Zm-7.8-28.77l20.73-9.86c.04.06.08.12.12.17.32.42.71.74,1.16.95l-12.33,37.29c-.36-.07-.73-.08-1.1-.02l-8.58-28.54Zm-43.26,17.04l-6.72-65.58,35.04,10.08c-.12.8.06,1.64.58,2.34.2.26.43.49.68.67l-28.54,52.69c-.33-.13-.68-.2-1.04-.21Zm-6.8-66.44l-1.6-15.61c.41-.1.8-.27,1.15-.54.14-.1.27-.22.38-.34l35.54,26.4c-.05.09-.09.17-.13.26l-35.35-10.17Zm38.73,14.51l10.36,34.46-39.74,18.9c-.04-.06-.07-.12-.12-.17-.2-.26-.43-.49-.68-.67l28.54-52.69c.52.2,1.08.26,1.63.17Zm.77-.23c.21-.09.4-.21.59-.35.03-.03.07-.06.1-.08l30.57,22.33c-.49.78-.61,1.75-.33,2.63l-20.62,9.81-10.32-34.34Zm34.76,26.58l13.52,31.95-25.75,7.02c-.1-.23-.22-.46-.38-.67-.31-.42-.71-.74-1.16-.95l12.33-37.29c.47.09.96.07,1.43-.06Zm13.84,32.7l27.31,64.51c-.1.06-.19.12-.29.19-.01.01-.02.02-.04.03l-53.49-55.31c.54-.68.77-1.54.66-2.38l25.85-7.05Zm26.41,65.31c-.47.61-.69,1.37-.64,2.13l-38.7,6.05-14.92-63.07c.27-.1.52-.24.76-.42l53.5,55.32Zm1.98,5.01l-2.12,41.24-60.01,31.03s-.04-.06-.06-.09c-.06-.08-.13-.16-.2-.24l61.29-72.34c.34.2.71.33,1.09.39Zm-61.61,69.78l24.29-39.64c1,.45,2.21.36,3.16-.35,1.32-.99,1.64-2.81.78-4.19l30.69-25.36-58.92,69.54Zm22.45-42.77l-28.1,1.28-1.12-17.33c.45-.09.88-.27,1.27-.56.21-.16.39-.34.55-.53l27.63,16.18c-.13.31-.21.63-.24.96Zm-28.9,1.31l-65.36,2.97s-.01-.08-.02-.11l61.67-21.87c.08.16.17.31.28.45.57.77,1.43,1.2,2.31,1.25l1.12,17.31Zm-66.42,1.12l26.57-41,35.98,18.39c-.2.55-.23,1.14-.11,1.72l-61.67,21.87c-.08-.16-.17-.31-.28-.46-.15-.19-.31-.36-.49-.52Zm-3.8-57.43c.11-.32.17-.66.18-1l41.45-4.64c.1.4.27.78.53,1.13.15.19.31.37.49.52l-12.55,19.37-30.09-15.38Zm-.85-3.38l15.88-22.85,26.9,18.34c-.24.44-.37.94-.38,1.45l-41.45,4.64c-.1-.4-.27-.78-.53-1.13-.12-.17-.26-.32-.41-.45Zm-7.01-39.42c.19-.37.3-.77.33-1.18l32.94-1.77c.08.46.27.91.57,1.3.12.17.26.32.41.45l-11.57,16.65-22.68-15.46Zm-3.19-4.53l-.75-2.91,35.26,3.78-31.03,1.66c-.08-.46-.27-.9-.57-1.3-.7-.94-1.82-1.37-2.91-1.24Zm-.97-3.74l-20.1-77.28c.07-.03.15-.06.22-.1l.29.07,57.96,79.78c-.45.43-.76.97-.9,1.55l-37.46-4.02Zm-19.07-77.96c.31-.3.54-.65.69-1.03l51.42,14.79,6.75,65.9c-.27.06-.53.16-.78.3l-58.09-79.96Zm.91-1.81c.01-.08.02-.17.02-.24l33.53-2.08,13.01-.8c.09.45.27.89.56,1.28.6.8,1.5,1.23,2.43,1.26l1.57,15.29-51.12-14.71Zm52.61-2.7l40.81,8.38-2.94,17.57c-.75-.07-1.52.12-2.17.6-.14.1-.26.22-.38.34l-35.55-26.38c.09-.16.17-.33.23-.51Zm41.6,8.54l48.18,9.89c-.01.14-.01.27,0,.41l-49.22,9.26c-.1-.31-.26-.62-.46-.9-.38-.51-.88-.87-1.43-1.07l2.94-17.58Zm49.48,12.67l-10.93,20.39-39.48-12.02c.03-.18.04-.35.04-.53l49.22-9.42c.1.31.26.62.46.89.2.27.43.49.69.68Zm.71.38c.74.28,1.57.27,2.32-.04l16.01,27.69c-.38.35-.66.77-.83,1.23l-28.35-8.63,10.86-20.25Zm59.03,50.08l-74.93-15.92s0-.05,0-.07l33.3-3.26c.1.36.26.71.5,1.03,1.04,1.39,3,1.68,4.39.64.29-.21.52-.47.71-.75l36.01,18.32s0,0,0,0Zm-35.32,83.75l-27.27-64.42,62.65-17.08c.1.23.22.46.38.67.25.34.56.61.9.82l-34.86,80.05c-.58-.19-1.21-.2-1.81-.04Zm32.85,29.45l-33.8,17.48,2.09-40.79c.55-.05,1.1-.25,1.57-.6.13-.1.25-.21.37-.32l30.02,21.49c-.5.82-.6,1.84-.25,2.74Zm-37.98,98.97l4.13-80.56,34.23-17.7s.02.03.03.05c.31.42.7.73,1.13.94l-39.3,97.32c-.08-.02-.15-.03-.23-.05Zm-56.63-46.51c.55-.83.68-1.87.34-2.81l59.59-30.81-4.11,80.09c-.57.04-1.14.24-1.63.61-.07.05-.13.11-.2.17l-54-47.24Zm-2.4-4.87l-2.7-41.83,28.08-1.28c.08.47.27.92.57,1.33.16.22.35.4.55.57l-25.42,41.48c-.34-.15-.71-.24-1.08-.27Zm-69.12-37.86c.13-.31.21-.63.24-.97l65.37-2.97,2.7,41.85c-.45.09-.88.27-1.27.56-.23.17-.43.37-.6.59l-66.44-39.07Zm-5.73-59.59c.28-.21.52-.47.71-.74l30.02,15.34-26.53,40.93c-.38-.18-.78-.28-1.19-.3l-4.24-54.67c.43-.09.85-.27,1.23-.55Zm-8.62-42.69c.33-.1.64-.26.93-.47.17-.13.33-.27.47-.43l22.67,15.45-15.87,22.84c-.49-.25-1.04-.38-1.59-.35l-6.6-37.04Zm-51.14-14.27l48.19,5.17.83,3.2c-.24.1-.48.23-.7.39-.52.39-.88.9-1.08,1.46l-47.24-10.23Zm-4.99-3.09c-.23-.31-.52-.57-.83-.77l32.42-68.92c.43.14.9.18,1.35.13l20.03,76.99-52.34-5.62c-.01-.63-.21-1.26-.62-1.8Zm-2.63-1.26l-7.33-44.43,40.08-25c.21.26.46.48.74.66l-32.42,68.92c-.34-.11-.7-.16-1.07-.15Zm-29.13-30.83l21.05-13.14,7.28,44.09c-.34.1-.67.26-.97.49,0,0-.01,0-.02.01l-27.73-28.22c.72-.92.88-2.17.39-3.24Zm15.31-47.92l5.6,33.92-21.34,13.31c-.29-.35-.64-.63-1.03-.82l16.03-46.48c.24.05.49.07.74.06Zm2.8-1.97l42.84,10.91-39.31,24.52-5.54-33.6c.34-.1.67-.26.97-.48.48-.36.83-.83,1.04-1.36Zm88.66-44.74l-40.86,51.36c-1.06-.64-2.44-.62-3.49.17-1.07.8-1.49,2.15-1.14,3.37l-42.96-10.94c.06-.45.01-.92-.13-1.36l88.59-42.6Zm1.21-.22l7.56,33.23-48.51,19.5c-.07-.12-.14-.23-.22-.34-.08-.11-.17-.21-.27-.31l41.44-52.08Zm58.2,11.8c-.03.34,0,.7.09,1.04l-49.97,20.08-7.58-33.31,57.46,12.19Zm2.22,3.25l-7.44,44.51-40.79-8.37c.05-.6-.08-1.21-.39-1.76l47.27-35.2c.38.39.84.67,1.34.82Zm2.44-.27l39.9,53.6c-.36.35-.63.77-.79,1.23l-48.21-9.9,7.44-44.53c.56.02,1.13-.11,1.65-.4Zm1.58-2.37l34.18-.41,5.61,55.58c-.28.06-.56.17-.82.32l-39.9-53.6c.53-.51.85-1.19.93-1.89Zm30.39-37.97l3.71,36.75-34.1.41c-.07-.5-.27-1-.59-1.44-.07-.09-.14-.18-.23-.27l29.63-35.94c.48.3,1.02.46,1.58.48Zm2.49-1.11l46.1,29.71,10.31,6.64c-.14.27-.23.56-.29.85l-54.09.65-3.72-36.82c.41-.1.8-.27,1.16-.54.2-.14.37-.31.52-.49Zm.63-1.2l61.04,8.44-2.74,27.42c-.56.05-1.11.25-1.6.6-.17.13-.32.27-.46.42l-10.8-6.96-45.63-29.41c.08-.17.14-.34.19-.52Zm.09-1.24l61.18-16.46c.09.21.21.42.36.62.47.63,1.14,1.03,1.85,1.19l-2.35,23.53-61.01-8.44c0-.15,0-.3-.02-.44Zm-.37-1.11l58.18-52.38,5.35,32.78c-.34.1-.67.26-.97.49-.97.71-1.4,1.88-1.23,2.99l-61.17,16.45c-.05-.11-.1-.22-.16-.33Zm47.45-118.09l10.57,64.77-57.24,51.54,45.8-116.4c.28.07.57.1.87.09Zm1.58-.49l33.16,39.85c-.98,1.06-1.12,2.69-.28,3.91l-23.16,20.86-10.5-64.26c.27-.08.53-.2.78-.35Zm105.69,7.77c0,.28.06.56.15.84l-67.74,31.69c-.04-.06-.08-.13-.13-.19-.99-1.33-2.82-1.65-4.19-.77l-33.16-39.85c.38-.41.64-.91.76-1.44l104.31,9.73Zm1.63,2.64l-18.46,47.58-50.31-15.49c.08-.49.05-.99-.1-1.48l67.73-31.69c.04.07.08.13.13.19.28.38.63.67,1.02.88Zm2.22.3l22.17,58.61c-.2.09-.4.21-.58.34-.39.29-.69.66-.9,1.06l-40.6-12.5,18.44-47.52c.48.12.99.12,1.47,0Zm2.38-2.58l18.66.4,2.09,60.53c-.06,0-.12.02-.18.03l-22.19-58.67c.14-.07.27-.15.4-.25.69-.51,1.11-1.26,1.23-2.05Zm14.63-44.32c-.37.97-.26,2.11.41,3,.23.3.5.55.8.75l-17.95,37.13c-.05-.02-.1-.03-.15-.05l6.26-43.91c.66,0,1.34-.19,1.91-.62.26-.2.48-.42.67-.68l8.05,4.37Zm-7.52-6.8l13.22-4.4-2.39,9.22c-.77-.1-1.59.09-2.26.59-.26.2-.49.43-.67.68l-8.05-4.37c.21-.54.27-1.15.15-1.72Zm21.28-35.47l-7.82,30.14-13.72,4.56c-.08-.17-.18-.34-.3-.51-.14-.19-.3-.36-.48-.5l22.12-33.77c.06.03.13.06.2.09Zm4.2-2.11l59.73,7.75c0,.2.02.4.06.6l-70.9,23.59,7.69-29.63c.78.1,1.59-.09,2.26-.6.59-.44.98-1.05,1.16-1.72Zm69.06-27.55l-4.23,22.64-64.78,3.54c-.01-.08-.03-.15-.05-.23l67.3-27.39c.06.11.13.22.21.33.4.54.95.92,1.55,1.11Zm39.94,19.15c-.12.35-.17.72-.17,1.09l-43.18,2.36,4.2-22.45c.71.04,1.43-.16,2.05-.61.25-.19.47-.41.65-.65l36.45,20.27Zm2.2,4.06l-6.07,29.01-39.23-16.1c.11-.43.14-.88.06-1.32l43.3-13.03c.06.09.12.19.19.28.45.6,1.07,1,1.75,1.17Zm22.82,39.35c-.12.07-.24.14-.36.23-.31.23-.57.51-.77.82l-27.01-11.08,6.12-29.23c.38,0,.75-.08,1.11-.22l20.9,39.48Zm6.57-46.01c.14,1.4,1.2,2.52,2.59,2.77l-7.5,42.85c-.3-.01-.6.02-.9.09l-20.95-39.56s0,0,.01-.01c.84-.62,1.27-1.58,1.26-2.55l25.49-3.59Zm6.86-27.04c.13.09.27.17.41.24.15.09.3.16.46.22l-2.67,15.26-1.46,7.89c-.1-.01-.2-.03-.3-.03-1.62-.09-3.01,1.08-3.26,2.65l-25.64,3.61c-.1-.36-.27-.72-.51-1.04h0l.27.3,32.7-29.09Zm54.55-23.26l-36.02,30.55-13.69-8.47c.16-.34.26-.73.28-1.13.02-.34-.02-.66-.1-.97l49.43-20.13c.03.05.06.1.1.16Zm1.28,1.13l-9.24,44s-.01,0-.02,0c-1.05-.06-2,.41-2.61,1.16l-24.7-15.28,35.82-30.38c.23.21.48.38.75.51Zm16.05,26.07l-23.5,18.63c-.29-.24-.63-.42-1-.54l9.22-43.9c.14.03.28.05.42.06.39.02.77-.03,1.12-.14l13.73,25.9Zm46.7-37.82c.04.22.1.44.19.64l-46.24,36.67-13.64-25.74c.83-.53,1.4-1.43,1.46-2.49.01-.17,0-.34-.01-.51l44.56-6.56,13.69-2.02Zm1.27,2.01l-25.2,73.66c-.15-.03-.3-.05-.46-.06-.45-.02-.88.05-1.27.2l-20.01-37.76,46.27-36.69c.19.25.42.47.68.65Zm26.99,42.98l-50.39,31.75c-.28-.34-.63-.62-1.03-.82l25.16-73.53c.29.1.6.17.93.19.39.02.77-.03,1.12-.15l24.22,42.55Zm17.73-13.9c-.23.41-.38.88-.41,1.38-.03.51.07,1,.26,1.44l-16.9,10.65-24.17-42.46c.2-.13.39-.29.56-.46l40.65,29.45Zm2.86,4.7l6.59,39.78,3.48,21.06c-.09.03-.19.06-.28.1l-29.3-51.47,16.92-10.66c.54.68,1.36,1.13,2.29,1.18.1,0,.2,0,.3,0Zm37.02,29.61l-24.45,31.53c-.42-.25-.9-.4-1.42-.43-.09,0-.19,0-.28,0l-3.45-20.82-6.63-40.02c.45-.14.87-.38,1.21-.69l35.02,30.44Zm-34.5-31.06c.29-.44.46-.96.49-1.53.01-.18,0-.37-.02-.55l71.18-16.62c.13.39.35.74.61,1.04l-37.27,48.07-35-30.42Zm71.47-19.91c0,.14,0,.28.01.42l-71.21,16.62c-.35-.86-1.05-1.54-1.95-1.83l5.22-27.73,67.93,12.51Zm1.56,2.89l-20.55,59.54c-.15-.03-.31-.06-.46-.07-.87-.05-1.66.26-2.26.79l-14.14-12.29,37.27-48.07c.05.04.1.07.16.1Zm2.79.19l23.31,35.72-44.76,24.84c-.29-.4-.68-.72-1.13-.95l20.54-59.48c.22.06.44.1.67.11.49.02.95-.07,1.38-.24Zm41.47,23.25c-.15.34-.24.7-.26,1.09-.03.47.06.92.22,1.33l-17.41,9.66-23.32-35.73c.18-.14.35-.3.49-.47l40.27,24.12Zm-7.09-52.55l9.04,50.81c-.61.19-1.14.56-1.53,1.05l-40.25-24.11c.17-.36.28-.76.3-1.18.04-.68-.15-1.32-.49-1.86l30.64-25.54c.52.48,1.21.79,1.97.83.11,0,.21,0,.32,0Zm2.41-1.31l26.15,14.04-17.63,38.08c-.25-.08-.5-.13-.78-.15-.11,0-.21,0-.32,0l-9.03-50.8c.65-.21,1.22-.62,1.61-1.17Zm52.38-42.63l-25.9,55.93-26.1-14.02c.11-.3.18-.61.2-.95.03-.63-.13-1.23-.42-1.75l51.67-39.66c.16.16.35.32.55.44Zm1.92.47l16.14,77.1c-.62.22-1.15.62-1.52,1.14l-41.72-22.4,25.92-55.98c.24.08.5.13.77.14.14.01.28,0,.41,0Zm30.48,41.23l-12.64,35.77c-.16-.03-.32-.06-.49-.07-.14,0-.28,0-.41,0l-16.14-77.1c.15-.05.29-.11.43-.19l29.25,41.58Zm1.08-10.77c-.4.49-.65,1.11-.69,1.8-.07,1.28.64,2.43,1.72,2.98l-1.79,5.05-27.68-39.35,28.44,29.52Zm24.53,45.77l-24.71-35.12,1.98-5.6c.16.03.32.06.49.07.43.02.85-.04,1.24-.18l21,40.83Zm84.15-45.36c.03.41.14.81.32,1.17l-78.84,47.45c-.53-.78-1.41-1.31-2.43-1.36-.43-.03-.85.04-1.24.18l-22.26-43.27c.73-.5,1.24-1.31,1.34-2.24l103.1-1.91Zm2.47,2.84l-5.42,31.59c-1.72-.07-3.18,1.25-3.28,2.97,0,.1,0,.19,0,.29l-19.1,3.2-52.71,8.83c-.03-.14-.06-.27-.11-.4l78.91-47.49c.44.5,1.02.85,1.7,1Zm2.24-.34l16.35,24.87-21.39,8.66c-.39-.69-1.03-1.22-1.81-1.46l5.43-31.65c.52-.02,1-.17,1.43-.42Zm-18.45-43.04l47.61,60.42s-.03.03-.05.05l-27.8-18.87c.16-.35.25-.72.28-1.12.09-1.74-1.24-3.22-2.97-3.32-.36-.02-.71.03-1.03.12l-16.03-37.27h0Zm60.49,26.05l-10.11,33.45c-.11-.02-.23-.03-.35-.04-.65-.04-1.27.13-1.79.44l-47.6-60.42c.16-.16.3-.34.42-.54l59.43,27.1Zm20.57-68.02l-20.33,67.24-59.33-27.06c.08-.24.13-.49.14-.76.02-.43-.04-.83-.17-1.21l78.32-39.4c.33.52.8.93,1.37,1.19Zm1.17.27l5.76,77.05c-.85.17-1.59.69-2.04,1.42l-24.48-11.17,20.36-67.34c.11.02.23.03.34.04.02,0,.03,0,.05,0Zm2.67-1.3l33.75,20.19-28.99,58.27c-.27-.09-.56-.15-.86-.17l-5.76-77.06c.76-.17,1.42-.62,1.86-1.23Zm-10.28-42.81l37.32,8.22-27.81,30.14c-.46-.31-1.01-.51-1.6-.55-.17,0-.33,0-.49.02l-9.37-35.88c.91-.31,1.64-1.03,1.96-1.96Zm92.89-52l-54.94,59.53-37.79-8.32s0-.04,0-.06c.03-.52-.07-1.01-.27-1.45l92.85-49.88c.04.06.09.12.14.18Zm2.51,1.13l11.33,71.15c-.96.28-1.73,1.01-2.07,1.95l-65.79-14.49,54.62-59.19c.47.33,1.04.54,1.65.58.09,0,.17,0,.26,0Z"/>
    </g>
  </g>
</svg>